# Blender 4.1.1
# www.blender.org
mtllib Window.mtl
o Middle_Window_low
v -0.000000 2.149540 -0.215371
v -0.000000 2.031341 0.389515
v 0.327789 1.985212 0.470676
v 0.338250 2.115952 -0.204590
v 0.360187 2.345926 -2.238832
v 0.330850 2.360918 -1.822479
v 0.553083 2.294631 -1.809948
v 0.717344 1.731082 -0.231771
v 0.757697 1.569602 -0.243272
v 0.758949 1.620824 -0.838004
v 0.712218 1.804089 -0.836839
v 0.637803 1.978879 -0.841703
v 0.652615 1.884847 -0.217317
v 0.783425 1.403492 -0.253003
v 0.789070 1.432474 -0.842787
v 0.505141 2.259880 -2.160938
v 0.514755 2.239152 -1.502062
v 0.616970 2.054856 -1.468471
v 0.609306 2.073943 -2.100352
v 0.790735 1.455883 -1.433060
v 0.754960 1.663221 -1.433970
v 0.701064 1.864275 -1.443793
v 0.682084 1.910640 -2.061349
v 0.753203 1.671738 -1.732792
v 0.751062 1.537201 0.194144
v 0.777573 1.385126 0.100184
v 0.710596 1.680454 0.301680
v 0.546778 2.148582 -0.850185
v -0.000000 2.268822 -0.844508
v 0.338270 2.237600 -0.845905
v -0.000000 2.389995 -1.832422
v -0.000000 2.362612 -1.435470
v 0.334493 2.331857 -1.434548
v -0.000000 2.369089 -2.241601
v 0.574419 1.866738 0.684583
v 0.567944 2.036209 -0.176495
v 0.553487 2.261694 -1.434527
v 0.561767 2.165459 -0.851296
v 0.647920 1.815742 0.380022
v 0.573260 2.033983 -0.201093
v 0.571819 1.945373 0.453163
v -0.338250 2.115952 -0.204590
v -0.327789 1.985212 0.470676
v -0.360187 2.345926 -2.238832
v -0.553083 2.294631 -1.809948
v -0.330850 2.360918 -1.822479
v -0.717344 1.731082 -0.231771
v -0.712218 1.804089 -0.836839
v -0.758949 1.620824 -0.838004
v -0.757697 1.569602 -0.243272
v -0.637803 1.978879 -0.841703
v -0.652615 1.884847 -0.217317
v -0.789070 1.432474 -0.842787
v -0.783425 1.403492 -0.253003
v -0.505141 2.259880 -2.160938
v -0.609306 2.073943 -2.100352
v -0.616970 2.054856 -1.468471
v -0.514755 2.239152 -1.502062
v -0.754960 1.663221 -1.433970
v -0.790735 1.455883 -1.433060
v -0.682084 1.910640 -2.061349
v -0.701064 1.864275 -1.443793
v -0.753203 1.671738 -1.732792
v -0.751062 1.537201 0.194144
v -0.777573 1.385126 0.100184
v -0.710596 1.680454 0.301680
v -0.546778 2.148582 -0.850185
v -0.338270 2.237600 -0.845905
v -0.334493 2.331857 -1.434548
v -0.567944 2.036209 -0.176495
v -0.574419 1.866738 0.684583
v -0.553487 2.261694 -1.434527
v -0.561767 2.165459 -0.851296
v -0.647920 1.815742 0.380022
v -0.571819 1.945373 0.453163
v -0.573260 2.033983 -0.201093
v 0.193448 2.399819 -2.199947
v -0.000000 2.416258 -2.200549
v -0.000000 2.439164 -1.864578
v 0.196530 2.433237 -1.861492
v -0.000000 2.422234 -1.519826
v 0.193383 2.416424 -1.516581
v 0.526306 2.347091 -1.859726
v 0.388647 2.404759 -1.859442
v 0.383651 2.378038 -1.517139
v 0.525547 2.320713 -1.521675
v 0.385087 2.383115 -2.193632
v 0.545596 2.262147 -1.033540
v 0.376647 2.320852 -1.056225
v 0.369348 2.236214 -0.600053
v 0.548857 2.180814 -0.605448
v 0.190523 2.333098 -0.971257
v 0.185248 2.228172 -0.429047
v -0.000000 2.338766 -0.974610
v -0.000000 2.233351 -0.432573
v -0.000000 2.187604 -0.372512
v 0.182841 2.182501 -0.368954
v 0.363368 2.191838 -0.543966
v 0.538810 2.137758 -0.549476
v 0.533975 2.133941 -0.614471
v 0.358533 2.188021 -0.608962
v 0.178006 2.178684 -0.433949
v -0.000000 2.183652 -0.437413
v -0.193448 2.399819 -2.199947
v -0.196530 2.433237 -1.861492
v -0.193383 2.416424 -1.516581
v -0.526306 2.347091 -1.859726
v -0.525547 2.320713 -1.521675
v -0.383651 2.378038 -1.517139
v -0.388647 2.404759 -1.859442
v -0.385087 2.383115 -2.193632
v -0.545596 2.262147 -1.033540
v -0.548857 2.180814 -0.605448
v -0.369348 2.236214 -0.600053
v -0.376647 2.320852 -1.056225
v -0.185248 2.228172 -0.429047
v -0.190523 2.333098 -0.971257
v -0.182841 2.182501 -0.368954
v -0.538810 2.137758 -0.549476
v -0.363368 2.191838 -0.543966
v -0.533975 2.133941 -0.614471
v -0.358533 2.188021 -0.608962
v -0.178006 2.178684 -0.433949
vn 0.1974 0.9627 0.1852
vn -0.0000 0.9820 0.1890
vn -0.0000 0.9815 0.1915
vn 0.2222 0.9568 0.1874
vn 0.1302 0.9909 -0.0340
vn 0.1838 0.9827 0.0225
vn 0.2905 0.9560 0.0402
vn 0.9463 0.3226 0.0227
vn 0.9478 0.3167 0.0362
vn 0.9797 0.1990 0.0245
vn 0.9788 0.2044 0.0139
vn 0.8996 0.4354 0.0335
vn 0.9017 0.4294 0.0501
vn 0.9871 0.1595 0.0118
vn 0.9878 0.1543 0.0208
vn 0.8909 0.4542 0.0027
vn 0.8731 0.4876 0.0033
vn 0.8744 0.4849 0.0130
vn 0.8954 0.4451 0.0133
vn 0.9860 0.1665 0.0042
vn 0.9766 0.2150 0.0026
vn 0.9272 0.3745 -0.0000
vn 0.9428 0.3334 0.0068
vn 0.9681 0.2504 -0.0048
vn 0.9765 0.2135 0.0313
vn 0.9878 0.1538 0.0255
vn 0.9393 0.3401 0.0450
vn 0.8785 0.4764 0.0360
vn 0.1990 0.9655 0.1681
vn -0.0000 0.9852 0.1714
vn -0.0000 0.9999 0.0144
vn -0.0000 0.9935 0.1142
vn 0.1947 0.9742 0.1138
vn -0.0000 0.9992 -0.0407
vn 0.2966 0.9371 0.1839
vn 0.3002 0.9366 0.1808
vn 0.2992 0.9474 0.1135
vn 0.3045 0.9383 0.1638
vn 0.8961 0.4399 0.0587
vn 0.8801 0.4704 0.0636
vn 0.8808 0.4702 0.0558
vn -0.1977 0.9626 0.1852
vn -0.2222 0.9568 0.1874
vn -0.1302 0.9909 -0.0340
vn -0.2905 0.9560 0.0402
vn -0.1838 0.9827 0.0225
vn -0.9797 0.1990 0.0245
vn -0.9479 0.3166 0.0362
vn -0.9463 0.3226 0.0227
vn -0.9788 0.2044 0.0139
vn -0.9017 0.4294 0.0501
vn -0.8996 0.4355 0.0335
vn -0.9871 0.1595 0.0118
vn -0.9878 0.1544 0.0208
vn -0.8744 0.4849 0.0130
vn -0.8731 0.4875 0.0034
vn -0.8910 0.4541 0.0027
vn -0.8954 0.4450 0.0133
vn -0.9861 0.1664 0.0042
vn -0.9766 0.2150 0.0026
vn -0.9273 0.3744 -0.0000
vn -0.9428 0.3334 0.0068
vn -0.9681 0.2504 -0.0048
vn -0.9878 0.1538 0.0255
vn -0.9765 0.2135 0.0313
vn -0.9393 0.3401 0.0450
vn -0.8785 0.4765 0.0360
vn -0.1990 0.9655 0.1681
vn -0.1947 0.9742 0.1138
vn -0.2966 0.9371 0.1839
vn -0.3002 0.9366 0.1808
vn -0.2992 0.9474 0.1135
vn -0.3047 0.9383 0.1637
vn -0.8961 0.4399 0.0587
vn -0.8801 0.4704 0.0636
vn -0.8808 0.4701 0.0558
vn 0.0946 0.9954 -0.0130
vn 0.0878 0.9927 -0.0828
vn -0.0000 0.9965 -0.0835
vn -0.0000 0.9998 -0.0179
vn 0.0976 0.9901 0.1011
vn -0.0000 0.9950 0.0996
vn 0.3611 0.9279 0.0924
vn 0.3835 0.9234 0.0166
vn 0.2663 0.9639 -0.0014
vn 0.2653 0.9592 0.0973
vn 0.1750 0.9814 -0.0789
vn 0.2817 0.8658 0.4135
vn 0.3177 0.9366 0.1477
vn 0.2391 0.9596 0.1484
vn 0.2658 0.8977 0.3515
vn 0.0873 0.9815 0.1702
vn 0.2156 0.8668 0.4497
vn -0.0000 0.9853 0.1706
vn -0.0000 0.9142 0.4053
vn 0.1962 0.7719 0.6047
vn -0.0000 0.7959 0.6054
vn 0.2489 0.7458 0.6179
vn 0.3939 0.7079 0.5863
vn -0.1521 -0.9859 0.0692
vn -0.2915 -0.9534 0.0777
vn -0.0627 -0.9960 0.0632
vn 0.0194 -0.9982 0.0572
vn 0.0458 -0.9974 0.0552
vn -0.0000 -0.9982 0.0608
vn -0.0878 0.9927 -0.0828
vn -0.0946 0.9954 -0.0130
vn -0.0976 0.9901 0.1011
vn -0.2663 0.9639 -0.0014
vn -0.3834 0.9234 0.0166
vn -0.3611 0.9279 0.0924
vn -0.2653 0.9592 0.0973
vn -0.1749 0.9814 -0.0788
vn -0.2391 0.9596 0.1484
vn -0.3177 0.9366 0.1477
vn -0.2816 0.8658 0.4136
vn -0.2658 0.8977 0.3514
vn -0.0873 0.9815 0.1702
vn -0.2156 0.8668 0.4497
vn -0.1962 0.7719 0.6047
vn -0.2489 0.7459 0.6178
vn -0.2491 0.7460 0.6176
vn -0.3939 0.7079 0.5863
vn 0.2915 -0.9534 0.0777
vn 0.1520 -0.9859 0.0692
vn 0.0627 -0.9960 0.0632
vn -0.0458 -0.9974 0.0552
vn -0.0194 -0.9982 0.0572
vt 0.123611 0.223325
vt 0.124711 0.223271
vt 0.124711 0.225268
vt 0.123644 0.225554
vt 0.123534 0.216695
vt 0.123644 0.218042
vt 0.122892 0.218094
vt 0.514500 0.013526
vt 0.514648 0.011563
vt 0.515187 0.011576
vt 0.515111 0.013504
vt 0.513888 0.013566
vt 0.514107 0.011537
vt 0.515728 0.013492
vt 0.515731 0.011583
vt 0.513732 0.017644
vt 0.513051 0.017868
vt 0.513039 0.015735
vt 0.513716 0.015600
vt 0.515736 0.015402
vt 0.515056 0.015434
vt 0.514305 0.017495
vt 0.514386 0.015493
vt 0.515068 0.016400
vt 0.515220 0.010158
vt 0.515733 0.010439
vt 0.514724 0.009832
vt 0.513266 0.013616
vt 0.123615 0.221215
vt 0.124711 0.221203
vt 0.124711 0.218007
vt 0.124711 0.219280
vt 0.123633 0.219295
vt 0.124711 0.216680
vt 0.122807 0.226308
vt 0.122830 0.223462
vt 0.122890 0.219320
vt 0.122855 0.221236
vt 0.514233 0.009597
vt 0.513739 0.009376
vt 0.513559 0.011503
vt 0.125811 0.223325
vt 0.125779 0.225554
vt 0.125889 0.216695
vt 0.126530 0.218094
vt 0.125778 0.218042
vt 0.618949 0.003868
vt 0.618935 0.003329
vt 0.620899 0.003181
vt 0.620876 0.003792
vt 0.618910 0.002788
vt 0.620939 0.002569
vt 0.620864 0.004409
vt 0.618955 0.004412
vt 0.623107 0.001721
vt 0.625240 0.001732
vt 0.625017 0.002413
vt 0.622972 0.002397
vt 0.622775 0.004417
vt 0.622806 0.003738
vt 0.624867 0.002986
vt 0.622866 0.003067
vt 0.623773 0.003749
vt 0.617811 0.004414
vt 0.617531 0.003901
vt 0.617205 0.003405
vt 0.620989 0.001948
vt 0.125808 0.221215
vt 0.125790 0.219295
vt 0.126616 0.226308
vt 0.126592 0.223462
vt 0.126533 0.219320
vt 0.126568 0.221236
vt 0.616969 0.002914
vt 0.616748 0.002420
vt 0.618876 0.002241
vt 0.444744 0.057779
vt 0.444704 0.056683
vt 0.445332 0.056658
vt 0.445378 0.057747
vt 0.444781 0.058890
vt 0.445407 0.058867
vt 0.443660 0.058922
vt 0.443639 0.057824
vt 0.444121 0.057808
vt 0.444155 0.058911
vt 0.444081 0.056728
vt 0.443610 0.061935
vt 0.443620 0.060516
vt 0.444195 0.060410
vt 0.444221 0.061919
vt 0.444805 0.060672
vt 0.444826 0.062441
vt 0.445423 0.060655
vt 0.445423 0.062446
vt 0.444812 0.062682
vt 0.445411 0.062696
vt 0.443611 0.062168
vt 0.444209 0.062152
vt 0.657130 0.016232
vt 0.656537 0.016217
vt 0.656537 0.016006
vt 0.657131 0.016021
vt 0.657758 0.015503
vt 0.657758 0.015714
vt 0.658347 0.015558
vt 0.658331 0.015768
s 1
usemtl AGSystems_Windows
f 4/1/1 1/2/2 2/3/3
f 2/3/3 3/4/4 4/1/1
f 5/5/5 6/6/6 7/7/7
f 11/8/8 8/9/9 9/10/10
f 9/10/10 10/11/11 11/8/8
f 11/8/8 12/12/12 13/13/13
f 13/13/13 8/9/9 11/8/8
f 15/14/14 10/11/11 9/10/10
f 9/10/10 14/15/15 15/14/14
f 19/16/16 16/17/17 17/18/18
f 17/18/18 18/19/19 19/16/16
f 10/11/11 15/14/14 20/20/20
f 20/20/20 21/21/21 10/11/11
f 23/22/22 19/16/16 18/19/19
f 18/19/19 22/23/23 23/22/22
f 23/22/22 22/23/23 21/21/21
f 21/21/21 24/24/24 23/22/22
f 11/8/8 10/11/11 21/21/21
f 21/21/21 22/23/23 11/8/8
f 9/10/10 25/25/25 26/26/26
f 26/26/26 14/15/15 9/10/10
f 20/20/20 24/24/24 21/21/21
f 8/9/9 27/27/27 25/25/25
f 25/25/25 9/10/10 8/9/9
f 18/19/19 17/18/18 28/28/28
f 28/28/28 12/12/12 18/19/19
f 30/29/29 29/30/30 1/2/2
f 1/2/2 4/1/1 30/29/29
f 6/6/6 31/31/31 32/32/32
f 32/32/32 33/33/33 6/6/6
f 5/5/5 34/34/34 31/31/31
f 31/31/31 6/6/6 5/5/5
f 4/1/1 3/4/4 35/35/35
f 35/35/35 36/36/36 4/1/1
f 6/6/6 33/33/33 37/37/37
f 37/37/37 7/7/7 6/6/6
f 30/29/29 4/1/1 36/36/36
f 36/36/36 38/38/38 30/29/29
f 33/33/33 30/29/29 38/38/38
f 38/38/38 37/37/37 33/33/33
f 13/13/13 39/39/39 27/27/27
f 27/27/27 8/9/9 13/13/13
f 22/23/23 18/19/19 12/12/12
f 12/12/12 11/8/8 22/23/23
f 41/40/40 39/39/39 13/13/13
f 13/13/13 40/41/41 41/40/40
f 12/12/12 28/28/28 40/41/41
f 40/41/41 13/13/13 12/12/12
f 30/29/29 33/33/33 32/32/32
f 32/32/32 29/30/30 30/29/29
f 2/3/3 1/2/2 42/42/42
f 42/42/42 43/43/43 2/3/3
f 44/44/44 45/45/45 46/46/46
f 50/47/47 47/48/48 48/49/49
f 48/49/49 49/50/50 50/47/47
f 52/51/51 51/52/52 48/49/49
f 48/49/49 47/48/48 52/51/51
f 50/47/47 49/50/50 53/53/53
f 53/53/53 54/54/54 50/47/47
f 58/55/55 55/56/56 56/57/57
f 56/57/57 57/58/58 58/55/55
f 60/59/59 53/53/53 49/50/50
f 49/50/50 59/60/60 60/59/59
f 57/58/58 56/57/57 61/61/61
f 61/61/61 62/62/62 57/58/58
f 59/60/60 62/62/62 61/61/61
f 61/61/61 63/63/63 59/60/60
f 59/60/60 49/50/50 48/49/49
f 48/49/49 62/62/62 59/60/60
f 65/64/64 64/65/65 50/47/47
f 50/47/47 54/54/54 65/64/64
f 60/59/59 59/60/60 63/63/63
f 64/65/65 66/66/66 47/48/48
f 47/48/48 50/47/47 64/65/65
f 67/67/67 58/55/55 57/58/58
f 57/58/58 51/52/52 67/67/67
f 1/2/2 29/30/30 68/68/68
f 68/68/68 42/42/42 1/2/2
f 32/32/32 31/31/31 46/46/46
f 46/46/46 69/69/69 32/32/32
f 31/31/31 34/34/34 44/44/44
f 44/44/44 46/46/46 31/31/31
f 71/70/70 43/43/43 42/42/42
f 42/42/42 70/71/71 71/70/70
f 72/72/72 69/69/69 46/46/46
f 46/46/46 45/45/45 72/72/72
f 70/71/71 42/42/42 68/68/68
f 68/68/68 73/73/73 70/71/71
f 73/73/73 68/68/68 69/69/69
f 69/69/69 72/72/72 73/73/73
f 66/66/66 74/74/74 52/51/51
f 52/51/51 47/48/48 66/66/66
f 51/52/52 57/58/58 62/62/62
f 62/62/62 48/49/49 51/52/52
f 52/51/51 74/74/74 75/75/75
f 75/75/75 76/76/76 52/51/51
f 76/76/76 67/67/67 51/52/52
f 51/52/52 52/51/51 76/76/76
f 32/32/32 69/69/69 68/68/68
f 68/68/68 29/30/30 32/32/32
f 80/77/77 77/78/78 78/79/79
f 78/79/79 79/80/80 80/77/77
f 82/81/81 80/77/77 79/80/80
f 79/80/80 81/82/82 82/81/81
f 86/83/83 83/84/84 84/85/85
f 84/85/85 85/86/86 86/83/83
f 84/85/85 87/87/87 77/78/78
f 77/78/78 80/77/77 84/85/85
f 85/86/86 84/85/85 80/77/77
f 80/77/77 82/81/81 85/86/86
f 84/85/85 83/84/84 87/87/87
f 91/88/88 88/89/89 89/90/90
f 89/90/90 90/91/91 91/88/88
f 90/91/91 89/90/90 92/92/92
f 92/92/92 93/93/93 90/91/91
f 93/93/93 92/92/92 94/94/94
f 94/94/94 95/95/95 93/93/93
f 92/92/92 82/81/81 81/82/82
f 81/82/82 94/94/94 92/92/92
f 89/90/90 85/86/86 82/81/81
f 82/81/81 92/92/92 89/90/90
f 88/89/89 86/83/83 85/86/86
f 85/86/86 89/90/90 88/89/89
f 97/96/96 93/93/93 95/95/95
f 95/95/95 96/97/97 97/96/96
f 99/98/98 91/88/88 90/91/91
f 90/91/91 98/99/99 99/98/98
f 98/99/99 90/91/91 93/93/93
f 93/93/93 97/96/96 98/99/99
f 101/100/100 100/101/101 99/102/101
f 99/102/101 98/103/102 101/100/100
f 97/104/103 102/105/104 101/100/100
f 101/100/100 98/103/102 97/104/103
f 96/106/105 103/107/105 102/105/104
f 102/105/104 97/104/103 96/106/105
f 78/79/79 104/78/106 105/77/107
f 105/77/107 79/80/80 78/79/79
f 79/80/80 105/77/107 106/81/108
f 106/81/108 81/82/82 79/80/80
f 110/85/109 107/84/110 108/83/111
f 108/83/111 109/86/112 110/85/109
f 104/78/106 111/87/113 110/85/109
f 110/85/109 105/77/107 104/78/106
f 105/77/107 110/85/109 109/86/112
f 109/86/112 106/81/108 105/77/107
f 110/85/109 111/87/113 107/84/110
f 115/90/114 112/89/115 113/88/116
f 113/88/116 114/91/117 115/90/114
f 117/92/118 115/90/114 114/91/117
f 114/91/117 116/93/119 117/92/118
f 94/94/94 117/92/118 116/93/119
f 116/93/119 95/95/95 94/94/94
f 81/82/82 106/81/108 117/92/118
f 117/92/118 94/94/94 81/82/82
f 106/81/108 109/86/112 115/90/114
f 115/90/114 117/92/118 106/81/108
f 109/86/112 108/83/111 112/89/115
f 112/89/115 115/90/114 109/86/112
f 95/95/95 116/93/119 118/96/120
f 118/96/120 96/97/97 95/95/95
f 114/91/117 113/88/116 119/98/121
f 119/98/122 120/99/123 114/91/117
f 116/93/119 114/91/117 120/99/123
f 120/99/123 118/96/120 116/93/119
f 119/102/124 121/101/124 122/100/125
f 122/100/125 120/103/126 119/102/124
f 122/100/125 123/105/127 118/104/128
f 118/104/128 120/103/126 122/100/125
f 123/105/127 103/107/105 96/106/105
f 96/106/105 118/104/128 123/105/127
