# Blender 4.1.1
# www.blender.org
mtllib Idkwtfthisislmao.mtl
o IdfkWhatthisis
v -0.002946 -0.024868 -0.179409
v -0.002946 -0.014244 -0.153086
v -0.002946 -0.011170 -0.177272
v -0.002946 -0.006301 -0.165238
v 0.002946 -0.006301 -0.165238
v 0.002946 -0.014244 -0.153086
v 0.002946 -0.011170 -0.177272
v 0.002946 -0.024868 -0.179409
v 0.002946 -0.024868 -0.179409
v -0.002946 -0.024868 -0.179409
v 0.002946 -0.011170 -0.177272
v -0.002946 -0.011170 -0.177272
v 0.002946 -0.006301 -0.165238
v -0.002946 -0.006301 -0.165238
v 0.002946 -0.014244 -0.153086
v -0.002946 -0.014244 -0.153086
v 0.007182 -0.010179 -0.146301
v 0.007182 -0.016641 -0.143779
v 0.009510 -0.017887 -0.146967
v 0.009510 -0.011424 -0.149489
v 0.009510 -0.020303 -0.153149
v 0.009510 -0.013836 -0.155672
v 0.008410 -0.016853 -0.163399
v 0.008410 -0.023315 -0.160877
v 0.005842 -0.027796 -0.172358
v 0.005842 -0.021333 -0.174880
v 0.005719 -0.030693 -0.179770
v 0.005719 -0.024227 -0.182294
v -0.007182 -0.010179 -0.146301
v 0.007182 -0.010179 -0.146301
v -0.009510 -0.011424 -0.149489
v 0.009510 -0.011424 -0.149489
v -0.009510 -0.013836 -0.155672
v 0.009510 -0.013836 -0.155672
v -0.008410 -0.016853 -0.163399
v 0.008410 -0.016853 -0.163399
v -0.005842 -0.021333 -0.174880
v 0.005842 -0.021333 -0.174880
v -0.005719 -0.024227 -0.182294
v 0.005719 -0.024227 -0.182294
v -0.005719 -0.030693 -0.179770
v 0.005719 -0.024227 -0.182294
v 0.005719 -0.030693 -0.179770
v -0.005719 -0.024227 -0.182294
v -0.005842 -0.027796 -0.172358
v -0.005842 -0.021333 -0.174880
v -0.008410 -0.023315 -0.160877
v -0.008410 -0.016853 -0.163399
v -0.009510 -0.020303 -0.153149
v -0.009510 -0.013836 -0.155672
v -0.009510 -0.017887 -0.146967
v -0.009510 -0.011424 -0.149489
v -0.007182 -0.010179 -0.146301
v -0.007182 -0.016641 -0.143779
v 0.007182 -0.016641 -0.143779
v 0.007182 -0.010179 -0.146301
v 0.012750 -0.034577 -0.208757
v -0.012750 -0.034577 -0.208757
v 0.015879 -0.033289 -0.206624
v -0.015879 -0.033289 -0.206624
v 0.017266 -0.031121 -0.203035
v -0.017266 -0.031121 -0.203035
v 0.015937 -0.023116 -0.189780
v -0.015937 -0.023116 -0.189780
v 0.012835 -0.016439 -0.178325
v -0.012835 -0.016439 -0.178325
v 0.012835 -0.016439 -0.178325
v -0.012835 -0.016439 -0.178325
v 0.009789 -0.011764 -0.170342
v -0.009789 -0.011764 -0.170342
v 0.006678 -0.010169 -0.167700
v -0.006678 -0.010169 -0.167700
v 0.012750 -0.039075 -0.206041
v -0.015879 -0.037787 -0.203907
v -0.012750 -0.039075 -0.206041
v 0.015879 -0.037787 -0.203907
v -0.017266 -0.035620 -0.200319
v 0.017266 -0.035620 -0.200319
v -0.015937 -0.027614 -0.187063
v 0.015937 -0.027614 -0.187063
v -0.012835 -0.020584 -0.175822
v 0.012835 -0.020584 -0.175822
v -0.009789 -0.015694 -0.167968
v 0.009789 -0.015694 -0.167968
v -0.006678 -0.014099 -0.165327
v 0.006678 -0.014099 -0.165327
v -0.009789 -0.011764 -0.170342
v -0.006678 -0.014099 -0.165327
v -0.006678 -0.010169 -0.167700
v -0.009789 -0.015694 -0.167968
v -0.012835 -0.016439 -0.178325
v -0.012835 -0.020584 -0.175822
v -0.015937 -0.023116 -0.189780
v -0.015937 -0.027614 -0.187063
v -0.017266 -0.031121 -0.203035
v -0.017266 -0.035620 -0.200319
v -0.015879 -0.037787 -0.203907
v -0.015879 -0.033289 -0.206624
v -0.012750 -0.034577 -0.208757
v -0.012750 -0.039075 -0.206041
v 0.006678 -0.014099 -0.165327
v -0.006678 -0.010169 -0.167700
v -0.006678 -0.014099 -0.165327
v 0.006678 -0.010169 -0.167700
v 0.009789 -0.015694 -0.167968
v 0.009789 -0.011764 -0.170342
v 0.012835 -0.020584 -0.175822
v 0.012835 -0.016439 -0.178325
v 0.015937 -0.023116 -0.189780
v 0.015937 -0.027614 -0.187063
v 0.017266 -0.035620 -0.200319
v 0.017266 -0.031121 -0.203035
v 0.015879 -0.037787 -0.203907
v 0.015879 -0.033289 -0.206624
v 0.012750 -0.034577 -0.208757
v 0.012750 -0.039075 -0.206041
v -0.012750 -0.039075 -0.206041
v -0.012750 -0.034577 -0.208757
vn -1.0000 -0.0000 -0.0000
vn 1.0000 -0.0000 -0.0000
vn -0.0000 0.1544 -0.9880
vn -0.0000 0.6068 -0.7948
vn -0.0000 0.6069 -0.7948
vn -0.0000 0.9921 0.1252
vn -0.0000 0.8368 0.5475
vn 0.2016 0.3563 0.9124
vn 0.2016 0.3564 0.9123
vn 0.9744 0.0817 0.2095
vn 0.9744 0.0822 0.2094
vn 0.9973 -0.0274 -0.0684
vn 0.9846 -0.0646 -0.1625
vn 0.9913 -0.0469 -0.1232
vn 0.5674 -0.2993 -0.7671
vn 0.5674 -0.2994 -0.7671
vn -0.0000 0.9314 -0.3640
vn -0.0000 0.9313 -0.3642
vn -0.0000 0.9315 -0.3639
vn -0.0000 0.9314 -0.3639
vn -0.0000 0.9316 -0.3636
vn -0.5675 -0.2994 -0.7670
vn 0.5675 -0.2993 -0.7670
vn -0.5675 -0.2993 -0.7670
vn -0.9913 -0.0469 -0.1232
vn -0.9846 -0.0646 -0.1625
vn -0.9973 -0.0274 -0.0683
vn -0.9973 -0.0274 -0.0684
vn -0.9744 0.0822 0.2093
vn -0.9744 0.0817 0.2095
vn -0.2017 0.3563 0.9123
vn -0.2017 0.3561 0.9124
vn 0.2016 0.3563 0.9123
vn -0.0000 0.8560 -0.5170
vn -0.0000 0.8558 -0.5173
vn -0.0000 0.8587 -0.5125
vn -0.0000 0.8587 -0.5124
vn -0.0000 0.8632 -0.5049
vn -0.0000 0.8623 -0.5064
vn -0.0000 0.8622 -0.5065
vn -0.0000 -0.8560 0.5170
vn -0.0000 -0.8527 0.5223
vn -0.0000 -0.8477 0.5305
vn -0.0000 -0.8491 0.5282
vn -0.0000 -0.8560 0.5169
vn -0.0000 -0.8558 0.5172
vn -0.8963 0.2290 0.3797
vn -0.1839 0.5086 0.8411
vn -0.9654 0.1351 0.2232
vn -0.9885 0.0783 0.1292
vn -1.0000 -0.0019 -0.0021
vn -1.0000 -0.0014 -0.0023
vn -0.8282 -0.2897 -0.4797
vn -0.8282 -0.2898 -0.4797
vn -0.0861 -0.5146 -0.8531
vn 0.1839 0.5087 0.8411
vn -0.1838 0.5086 0.8411
vn 0.1839 0.5082 0.8414
vn 0.8963 0.2282 0.3802
vn 0.8963 0.2290 0.3797
vn 0.9654 0.1351 0.2232
vn 0.9885 0.0783 0.1293
vn 0.9885 0.0783 0.1292
vn 1.0000 -0.0020 -0.0019
vn 1.0000 -0.0014 -0.0024
vn 0.8282 -0.2898 -0.4797
vn 0.8282 -0.2897 -0.4797
vn 0.0861 -0.5146 -0.8531
vn 0.0861 -0.5151 -0.8528
vt 0.314941 0.197754
vt 0.253418 0.197754
vt 0.299561 0.223633
vt 0.271484 0.223633
vt 1.271484 0.223633
vt 1.252930 0.197754
vt 1.298828 0.223633
vt 1.314453 0.197754
vt 0.332520 0.229492
vt 0.332520 0.243652
vt 0.299316 0.229492
vt 0.299316 0.243652
vt 0.271484 0.229492
vt 0.271484 0.243652
vt 0.238281 0.229492
vt 0.238281 0.243652
vt 1.247070 0.175781
vt 1.236328 0.175781
vt 1.236328 0.167969
vt 1.247070 0.167969
vt 1.236328 0.157227
vt 1.247070 0.157227
vt 1.247070 0.143555
vt 1.236328 0.143555
vt 1.236328 0.124512
vt 1.247070 0.124512
vt 1.236328 0.111816
vt 1.247070 0.111816
vt 0.312256 0.089355
vt 0.312256 0.109375
vt 0.307129 0.086426
vt 0.307129 0.112793
vt 0.297607 0.086426
vt 0.297607 0.112793
vt 0.285889 0.087891
vt 0.285889 0.111328
vt 0.268066 0.091309
vt 0.268066 0.107422
vt 0.256836 0.091309
vt 0.256836 0.107422
vt 0.236572 0.111816
vt 0.247681 0.087402
vt 0.236572 0.087402
vt 0.247681 0.111816
vt 0.236572 0.124512
vt 0.247681 0.124512
vt 0.236572 0.143555
vt 0.247681 0.143555
vt 0.236572 0.157227
vt 0.247681 0.157227
vt 0.236572 0.167969
vt 0.247681 0.167969
vt 0.247681 0.175781
vt 0.236572 0.175781
vt 0.236572 0.208496
vt 0.247681 0.208496
vt 0.257568 0.181152
vt 0.257568 0.136719
vt 0.261963 0.186523
vt 0.261963 0.131348
vt 0.269043 0.188965
vt 0.269043 0.128906
vt 0.295654 0.186523
vt 0.295654 0.131348
vt 0.318115 0.180664
vt 0.318115 0.136719
vt 0.334229 0.175781
vt 0.334229 0.142090
vt 0.339844 0.170410
vt 0.339844 0.147461
vt 1.256836 0.136719
vt 1.261719 0.186523
vt 1.256836 0.181152
vt 1.261719 0.131348
vt 1.268555 0.188965
vt 1.268555 0.128906
vt 1.294922 0.186523
vt 1.294922 0.131348
vt 1.317383 0.180664
vt 1.317383 0.136719
vt 1.333984 0.175781
vt 1.333984 0.142090
vt 1.339844 0.170410
vt 1.339844 0.147461
vt 1.228516 0.211426
vt 1.217773 0.220215
vt 1.228516 0.220215
vt 1.217773 0.211426
vt 1.228516 0.193359
vt 1.217773 0.193359
vt 1.228516 0.168457
vt 1.217773 0.168457
vt 1.228516 0.143555
vt 1.217773 0.143555
vt 1.217773 0.135254
vt 1.228516 0.135254
vt 1.228516 0.127441
vt 1.217773 0.127441
vt 0.217896 0.220215
vt 0.229248 0.239746
vt 0.217896 0.239746
vt 0.229248 0.220215
vt 0.217896 0.211426
vt 0.229248 0.211426
vt 0.217896 0.193359
vt 0.229248 0.193359
vt 0.229248 0.168457
vt 0.217896 0.168457
vt 0.217896 0.143555
vt 0.229248 0.143555
vt 0.217896 0.135254
vt 0.229248 0.135254
vt 0.229248 0.127441
vt 0.217896 0.127441
vt 0.217896 0.082031
vt 0.229248 0.082031
s 1
usemtl m_Body.002
f 1/1/1 2/2/1 3/3/1
f 2/2/1 4/4/1 3/3/1
f 5/5/2 6/6/2 7/7/2
f 6/6/2 8/8/2 7/7/2
f 9/9/3 10/10/3 11/11/4
f 10/10/3 12/12/5 11/11/4
f 11/11/4 12/12/5 13/13/6
f 12/12/5 14/14/6 13/13/6
f 13/13/6 14/14/6 15/15/7
f 14/14/6 16/16/7 15/15/7
f 17/17/8 18/18/9 19/19/10
f 17/17/8 19/19/10 20/20/11
f 19/19/10 21/21/12 20/20/11
f 20/20/11 21/21/12 22/22/12
f 21/21/12 23/23/13 22/22/12
f 21/21/12 24/24/13 23/23/13
f 24/24/13 25/25/14 23/23/13
f 23/23/13 25/25/14 26/26/14
f 25/25/14 27/27/15 26/26/14
f 26/26/14 27/27/15 28/28/16
f 29/29/17 30/30/18 31/31/17
f 30/30/18 32/32/19 31/31/17
f 31/31/17 32/32/19 33/33/20
f 32/32/19 34/34/20 33/33/20
f 33/33/20 34/34/20 35/35/21
f 34/34/20 36/36/17 35/35/21
f 35/35/21 36/36/17 37/37/17
f 36/36/17 38/38/20 37/37/17
f 37/37/17 38/38/20 39/39/17
f 38/38/20 40/40/17 39/39/17
f 41/41/22 42/42/23 43/43/15
f 44/44/24 42/42/23 41/41/22
f 45/45/25 44/44/24 41/41/22
f 45/45/25 46/46/25 44/44/24
f 45/45/25 47/47/26 46/46/25
f 47/47/26 48/48/26 46/46/25
f 47/47/26 49/49/27 48/48/26
f 48/48/26 49/49/27 50/50/28
f 49/49/27 51/51/29 50/50/28
f 50/50/28 51/51/29 52/52/30
f 51/51/29 53/53/31 52/52/30
f 51/51/29 54/54/32 53/53/31
f 53/53/31 54/54/32 55/55/8
f 53/53/31 55/55/8 56/56/33
usemtl m_Body.003
f 57/57/34 58/58/34 59/59/35
f 58/58/34 60/60/34 59/59/35
f 59/59/35 60/60/34 61/61/34
f 60/60/34 62/62/34 61/61/34
f 61/61/34 62/62/34 63/63/36
f 62/62/34 64/64/37 63/63/36
f 63/63/36 64/64/37 65/65/38
f 64/64/37 66/66/38 65/65/38
f 67/65/38 68/66/38 69/67/39
f 68/66/38 70/68/40 69/67/39
f 69/67/39 70/68/40 71/69/34
f 70/68/40 72/70/34 71/69/34
f 73/71/41 74/72/41 75/73/41
f 73/71/41 76/74/41 74/72/41
f 74/72/41 76/74/41 77/75/41
f 76/74/41 78/76/41 77/75/41
f 77/75/41 78/76/41 79/77/42
f 78/76/41 80/78/42 79/77/42
f 79/77/42 80/78/42 81/79/43
f 80/78/42 82/80/43 81/79/43
f 81/79/43 82/80/43 83/81/44
f 82/80/43 84/82/44 83/81/44
f 83/81/44 84/82/44 85/83/45
f 84/82/44 86/84/46 85/83/45
f 87/85/47 88/86/48 89/87/48
f 90/88/47 88/86/48 87/85/47
f 91/89/49 90/88/47 87/85/47
f 92/90/49 90/88/47 91/89/49
f 93/91/50 92/90/49 91/89/49
f 94/92/50 92/90/49 93/91/50
f 95/93/51 94/92/50 93/91/50
f 95/93/51 96/94/52 94/92/50
f 97/95/53 96/94/52 95/93/51
f 97/95/53 95/93/51 98/96/54
f 99/97/55 97/95/53 98/96/54
f 99/97/55 100/98/55 97/95/53
f 101/99/56 102/100/57 103/101/57
f 104/102/58 102/100/57 101/99/56
f 105/103/59 104/102/58 101/99/56
f 106/104/60 104/102/58 105/103/59
f 107/105/61 106/104/60 105/103/59
f 108/106/61 106/104/60 107/105/61
f 109/107/62 108/106/61 107/105/61
f 109/107/62 107/105/61 110/108/63
f 111/109/64 109/107/62 110/108/63
f 112/110/65 109/107/62 111/109/64
f 113/111/66 112/110/65 111/109/64
f 113/111/66 114/112/67 112/110/65
f 113/111/66 115/113/68 114/112/67
f 113/111/66 116/114/69 115/113/68
f 115/113/68 116/114/69 117/115/55
f 115/113/68 117/115/55 118/116/55
