# Blender 4.1.1
# www.blender.org
mtllib PipeDecoDoohickey.mtl
o Wirepipesidklmao
v -0.050037 -0.023065 -0.130523
v -0.049872 -0.023300 -0.136283
v -0.054808 -0.016830 -0.134681
v -0.054318 -0.017194 -0.128767
v -0.051667 -0.028631 -0.128808
v -0.061905 -0.008223 -0.131080
v -0.057726 -0.021299 -0.126901
v -0.052913 -0.033092 -0.130238
v -0.060323 -0.009248 -0.125426
v -0.069650 0.000651 -0.123670
v -0.060456 -0.023737 -0.131661
v -0.052652 -0.033111 -0.136556
v -0.063742 -0.013860 -0.123382
v -0.066567 -0.001552 -0.119006
v -0.075486 0.005612 -0.113604
v -0.067436 -0.015685 -0.127773
v -0.070839 0.002427 -0.111296
v -0.077927 0.007487 -0.099116
v -0.069008 -0.006168 -0.117134
v -0.058519 -0.020710 -0.136469
v -0.051480 -0.028947 -0.138265
v -0.049872 -0.023300 -0.136283
v -0.054808 -0.016830 -0.134681
v -0.066301 -0.012201 -0.132530
v -0.061905 -0.008223 -0.131080
v -0.074325 -0.007469 -0.120587
v -0.074445 -0.003006 -0.124647
v -0.069650 0.000651 -0.123670
v -0.072814 -0.003251 -0.110214
v -0.078681 -0.003575 -0.111853
v -0.080333 0.001903 -0.113948
v -0.075486 0.005612 -0.113604
v -0.072966 0.003914 -0.099116
v -0.082858 0.003873 -0.099116
v -0.077927 0.007487 -0.099116
v -0.075486 0.005612 -0.084628
v -0.080944 -0.001934 -0.099116
v -0.080333 0.001903 -0.084284
v -0.069650 0.000651 -0.074562
v -0.074831 -0.001908 -0.099116
v -0.078681 -0.003575 -0.086379
v -0.074445 -0.003006 -0.073585
v -0.061375 -0.007838 -0.067152
v -0.072814 -0.003251 -0.088018
v -0.074325 -0.007469 -0.077645
v -0.065771 -0.011816 -0.065701
v -0.054423 -0.016205 -0.063551
v -0.070839 0.002427 -0.086936
v -0.075486 0.005612 -0.084628
v -0.069008 -0.006168 -0.081098
v -0.066567 -0.001552 -0.079226
v -0.069650 0.000651 -0.074562
v -0.066907 -0.015300 -0.070459
v -0.063213 -0.013475 -0.074850
v -0.059794 -0.008863 -0.072806
v -0.061375 -0.007838 -0.067152
v -0.058134 -0.020085 -0.061762
v -0.047090 -0.023335 -0.062068
v -0.048698 -0.028937 -0.059970
v -0.050089 -0.033073 -0.061587
v -0.060072 -0.023112 -0.066571
v -0.050782 -0.033055 -0.067875
v -0.057341 -0.020674 -0.071331
v -0.049526 -0.028629 -0.069395
v -0.053933 -0.016569 -0.069465
v -0.047644 -0.023103 -0.067805
v -0.054423 -0.016205 -0.063551
v -0.047090 -0.023335 -0.062068
v 0.054423 -0.016205 -0.063551
v 0.047644 -0.023103 -0.067805
v 0.047090 -0.023335 -0.062068
v 0.053933 -0.016569 -0.069465
v 0.061375 -0.007838 -0.067152
v 0.049526 -0.028629 -0.069395
v 0.059794 -0.008863 -0.072806
v 0.069650 0.000651 -0.074562
v 0.057341 -0.020674 -0.071331
v 0.050782 -0.033055 -0.067875
v 0.066567 -0.001552 -0.079226
v 0.075486 0.005612 -0.084628
v 0.063213 -0.013475 -0.074850
v 0.060071 -0.023112 -0.066571
v 0.050089 -0.033073 -0.061587
v 0.070839 0.002427 -0.086936
v 0.077927 0.007487 -0.099116
v 0.069008 -0.006168 -0.081098
v 0.066907 -0.015300 -0.070459
v 0.058134 -0.020085 -0.061762
v 0.048698 -0.028937 -0.059970
v 0.047090 -0.023335 -0.062068
v 0.054423 -0.016205 -0.063551
v 0.065771 -0.011816 -0.065701
v 0.061375 -0.007838 -0.067152
v 0.074325 -0.007469 -0.077645
v 0.074445 -0.003006 -0.073585
v 0.069650 0.000651 -0.074562
v 0.072814 -0.003251 -0.088018
v 0.078681 -0.003575 -0.086379
v 0.080333 0.001903 -0.084284
v 0.075486 0.005612 -0.084628
v 0.072966 0.003914 -0.099116
v 0.082858 0.003873 -0.099116
v 0.077927 0.007487 -0.099116
v 0.075486 0.005612 -0.113604
v 0.080944 -0.001934 -0.099116
v 0.080333 0.001903 -0.113948
v 0.069650 0.000651 -0.123670
v 0.074831 -0.001908 -0.099116
v 0.078681 -0.003575 -0.111853
v 0.074445 -0.003006 -0.124647
v 0.061905 -0.008223 -0.131080
v 0.072814 -0.003251 -0.110214
v 0.074325 -0.007469 -0.120587
v 0.066301 -0.012201 -0.132530
v 0.054808 -0.016830 -0.134681
v 0.070839 0.002427 -0.111296
v 0.075486 0.005612 -0.113604
v 0.069008 -0.006168 -0.117134
v 0.066567 -0.001552 -0.119006
v 0.069650 0.000651 -0.123670
v 0.067436 -0.015685 -0.127773
v 0.063742 -0.013860 -0.123382
v 0.060323 -0.009248 -0.125426
v 0.061905 -0.008223 -0.131080
v 0.060456 -0.023737 -0.131661
v 0.054318 -0.017194 -0.128767
v 0.054808 -0.016830 -0.134681
v 0.057726 -0.021299 -0.126901
v 0.050037 -0.023065 -0.130523
v 0.049872 -0.023300 -0.136283
v 0.051667 -0.028631 -0.128808
v 0.052913 -0.033092 -0.130238
v 0.052652 -0.033111 -0.136556
v 0.058519 -0.020710 -0.136469
v 0.051480 -0.028947 -0.138265
v 0.049872 -0.023300 -0.136283
vn 0.7248 0.3956 0.5641
vn 0.4244 0.4968 -0.7570
vn 0.4699 0.5992 -0.6482
vn 0.7710 0.4168 0.4814
vn 0.2310 -0.0823 0.9695
vn 0.3248 0.6928 -0.6439
vn -0.0000 -0.3367 0.9416
vn -0.7391 -0.6179 0.2680
vn 0.8257 0.4226 0.3737
vn 0.1330 0.8258 -0.5480
vn -0.8070 -0.5896 -0.0352
vn -0.7729 -0.5225 -0.3601
vn 0.1056 -0.4948 0.8625
vn 0.8461 0.4583 0.2722
vn -0.0647 0.9555 -0.2878
vn -0.7579 -0.6522 0.0118
vn 0.8745 0.4597 0.1546
vn -0.1097 0.9940 -0.0000
vn 0.3462 -0.6063 0.7159
vn -0.3875 0.0137 -0.9218
vn -0.1860 0.0587 -0.9808
vn 0.4700 0.5992 -0.6482
vn -0.5460 0.0607 -0.8356
vn 0.3249 0.6928 -0.6438
vn -0.7216 -0.6922 0.0117
vn -0.6908 0.2133 -0.6908
vn 0.1331 0.8258 -0.5480
vn 0.5188 -0.7753 0.3602
vn -0.6718 -0.7403 -0.0274
vn -0.8727 0.3189 -0.3698
vn -0.0646 0.9555 -0.2878
vn 0.9062 0.4228 -0.0000
vn -0.9374 0.3483 -0.0000
vn -0.1096 0.9940 -0.0000
vn -0.0646 0.9555 0.2878
vn -0.6771 -0.7359 -0.0000
vn -0.8727 0.3189 0.3698
vn 0.1194 0.8318 0.5421
vn 0.5672 -0.8236 -0.0000
vn -0.6717 -0.7403 0.0274
vn -0.6907 0.2015 0.6945
vn 0.3172 0.7068 0.6323
vn 0.5188 -0.7753 -0.3602
vn -0.7061 -0.7081 0.0039
vn -0.5377 0.0626 0.8408
vn 0.4386 0.6206 0.6500
vn 0.8745 0.4598 -0.1545
vn -0.0647 0.9555 0.2878
vn 0.3386 -0.6125 -0.7143
vn 0.8325 0.4721 -0.2899
vn 0.1193 0.8318 0.5422
vn -0.7396 -0.6731 -0.0020
vn 0.1213 -0.4971 -0.8592
vn 0.8092 0.4437 -0.3851
vn 0.3171 0.7067 0.6324
vn -0.3622 0.0098 0.9320
vn 0.4011 0.5537 0.7298
vn -0.1077 0.0861 0.9904
vn -0.6941 -0.5651 0.4459
vn -0.7829 -0.6205 0.0450
vn -0.6888 -0.6810 -0.2486
vn -0.0098 -0.3233 -0.9463
vn 0.1897 -0.0568 -0.9802
vn 0.7301 0.4560 -0.5089
vn 0.6424 0.4896 -0.5895
vn 0.4385 0.6206 0.6501
vn 0.4011 0.5536 0.7298
vn -0.4385 0.6206 0.6500
vn -0.6424 0.4896 -0.5895
vn -0.4010 0.5537 0.7298
vn -0.7301 0.4560 -0.5089
vn -0.3171 0.7068 0.6324
vn -0.1897 -0.0568 -0.9802
vn -0.8092 0.4437 -0.3851
vn -0.1193 0.8318 0.5422
vn 0.0098 -0.3233 -0.9463
vn 0.6888 -0.6810 -0.2486
vn -0.8325 0.4721 -0.2899
vn 0.0647 0.9555 0.2878
vn -0.1213 -0.4971 -0.8592
vn 0.7829 -0.6205 0.0450
vn 0.6942 -0.5651 0.4459
vn -0.8745 0.4598 -0.1545
vn 0.1097 0.9940 -0.0000
vn -0.3386 -0.6125 -0.7143
vn 0.7396 -0.6731 -0.0020
vn 0.3622 0.0098 0.9320
vn 0.1077 0.0861 0.9904
vn -0.4011 0.5537 0.7298
vn -0.4386 0.6206 0.6500
vn 0.5377 0.0626 0.8408
vn -0.3172 0.7068 0.6323
vn 0.7061 -0.7081 0.0039
vn 0.6907 0.2015 0.6945
vn -0.1194 0.8318 0.5421
vn -0.5188 -0.7753 -0.3602
vn 0.6717 -0.7403 0.0274
vn 0.8727 0.3189 0.3698
vn 0.0646 0.9555 0.2878
vn -0.9062 0.4228 -0.0000
vn 0.9374 0.3483 -0.0000
vn 0.1096 0.9940 -0.0000
vn 0.0646 0.9555 -0.2878
vn 0.6771 -0.7359 -0.0000
vn 0.8727 0.3189 -0.3698
vn -0.1331 0.8258 -0.5480
vn -0.5674 -0.8235 -0.0000
vn 0.6718 -0.7403 -0.0274
vn 0.6908 0.2133 -0.6908
vn -0.3249 0.6928 -0.6438
vn -0.5188 -0.7753 0.3602
vn 0.7216 -0.6922 0.0117
vn 0.5460 0.0607 -0.8356
vn -0.4700 0.5992 -0.6482
vn -0.8745 0.4597 0.1546
vn 0.0647 0.9555 -0.2878
vn -0.3462 -0.6063 0.7159
vn -0.8461 0.4583 0.2722
vn -0.1330 0.8258 -0.5481
vn 0.7579 -0.6522 0.0117
vn -0.1056 -0.4948 0.8625
vn -0.8257 0.4226 0.3737
vn -0.3248 0.6927 -0.6439
vn 0.8070 -0.5896 -0.0352
vn -0.7710 0.4168 0.4814
vn -0.4699 0.5991 -0.6482
vn -0.7248 0.3956 0.5641
vn -0.4244 0.4968 -0.7570
vn -0.2310 -0.0823 0.9695
vn 0.7391 -0.6179 0.2680
vn 0.7729 -0.5225 -0.3601
vn 0.3875 0.0137 -0.9218
vn 0.1860 0.0587 -0.9808
vt 0.577148 0.535400
vt 0.568359 0.535400
vt 0.568359 0.521240
vt 0.577148 0.521240
vt 0.586426 0.535400
vt 0.568359 0.507324
vt 0.586426 0.521240
vt 0.591797 0.535400
vt 0.577148 0.507324
vt 0.568359 0.493652
vt 0.595215 0.521240
vt 0.598633 0.535400
vt 0.586426 0.507324
vt 0.577148 0.493652
vt 0.568359 0.479492
vt 0.595215 0.507324
vt 0.577148 0.479492
vt 0.568359 0.465820
vt 0.586426 0.493652
vt 0.604492 0.521240
vt 0.604492 0.535400
vt 0.613281 0.535400
vt 0.613281 0.521240
vt 0.604492 0.507324
vt 0.613281 0.507324
vt 0.595215 0.493652
vt 0.604492 0.493652
vt 0.613281 0.493652
vt 0.586426 0.479492
vt 0.595215 0.479492
vt 0.604492 0.479492
vt 0.613281 0.479492
vt 0.577148 0.465820
vt 0.604492 0.465820
vt 0.613281 0.465820
vt 0.613281 0.452148
vt 0.595215 0.465820
vt 0.604492 0.452148
vt 0.613281 0.437988
vt 0.586426 0.465820
vt 0.595215 0.452148
vt 0.604492 0.437988
vt 0.613281 0.423828
vt 0.586426 0.452148
vt 0.595215 0.437988
vt 0.604492 0.423828
vt 0.613281 0.410156
vt 0.577148 0.452148
vt 0.568359 0.452148
vt 0.586426 0.437988
vt 0.577148 0.437988
vt 0.568359 0.437988
vt 0.595215 0.423828
vt 0.586426 0.423828
vt 0.577148 0.423828
vt 0.568359 0.423828
vt 0.604492 0.410156
vt 0.613281 0.395996
vt 0.604492 0.395996
vt 0.598633 0.395996
vt 0.595215 0.410156
vt 0.591797 0.395996
vt 0.586426 0.410156
vt 0.586426 0.395996
vt 0.577148 0.410156
vt 0.577148 0.395996
vt 0.568359 0.410156
vt 0.568359 0.395996
vt 1.568359 0.410156
vt 1.577148 0.395996
vt 1.568359 0.395996
vt 1.577148 0.410156
vt 1.568359 0.423828
vt 1.585938 0.395996
vt 1.577148 0.423828
vt 1.568359 0.437988
vt 1.585938 0.410156
vt 1.591797 0.395996
vt 1.577148 0.437988
vt 1.568359 0.452148
vt 1.585938 0.423828
vt 1.594727 0.410156
vt 1.598633 0.395996
vt 1.577148 0.452148
vt 1.568359 0.465820
vt 1.585938 0.437988
vt 1.594727 0.423828
vt 1.604492 0.410156
vt 1.604492 0.395996
vt 1.613281 0.395996
vt 1.613281 0.410156
vt 1.604492 0.423828
vt 1.613281 0.423828
vt 1.594727 0.437988
vt 1.604492 0.437988
vt 1.613281 0.437988
vt 1.585938 0.452148
vt 1.594727 0.452148
vt 1.604492 0.452148
vt 1.613281 0.452148
vt 1.577148 0.465820
vt 1.604492 0.465820
vt 1.613281 0.465820
vt 1.613281 0.479492
vt 1.594727 0.465820
vt 1.604492 0.479492
vt 1.613281 0.493652
vt 1.585938 0.465820
vt 1.594727 0.479492
vt 1.604492 0.493652
vt 1.613281 0.507324
vt 1.585938 0.479492
vt 1.594727 0.493652
vt 1.604492 0.507324
vt 1.613281 0.521240
vt 1.577148 0.479492
vt 1.568359 0.479492
vt 1.585938 0.493652
vt 1.577148 0.493652
vt 1.568359 0.493652
vt 1.594727 0.507324
vt 1.585938 0.507324
vt 1.577148 0.507324
vt 1.568359 0.507324
vt 1.594727 0.521240
vt 1.577148 0.521240
vt 1.568359 0.521240
vt 1.585938 0.521240
vt 1.577148 0.535400
vt 1.568359 0.535400
vt 1.585938 0.535400
vt 1.591797 0.535400
vt 1.598633 0.535400
vt 1.604492 0.521240
vt 1.604492 0.535400
vt 1.613281 0.535400
s 1
usemtl m_Body
f 1/1/1 2/2/2 3/3/3
f 4/4/4 1/1/1 3/3/3
f 5/5/5 1/1/1 4/4/4
f 4/4/4 3/3/3 6/6/6
f 7/7/7 5/5/5 4/4/4
f 8/8/8 5/5/5 7/7/7
f 9/9/9 4/4/4 6/6/6
f 7/7/7 4/4/4 9/9/9
f 9/9/9 6/6/6 10/10/10
f 11/11/11 8/8/8 7/7/7
f 12/12/12 8/8/8 11/11/11
f 13/13/13 7/7/7 9/9/9
f 11/11/11 7/7/7 13/13/13
f 14/14/14 9/9/9 10/10/10
f 13/13/13 9/9/9 14/14/14
f 14/14/14 10/10/10 15/15/15
f 16/16/16 11/11/11 13/13/13
f 14/14/14 15/15/15 17/17/17
f 18/18/18 17/17/17 15/15/15
f 19/19/19 13/13/13 14/14/14
f 19/19/19 14/14/14 17/17/17
f 16/16/16 13/13/13 19/19/19
f 20/20/20 12/12/12 11/11/11
f 20/20/20 11/11/11 16/16/16
f 20/20/20 21/21/21 12/12/12
f 22/22/2 21/21/21 20/20/20
f 23/23/22 22/22/2 20/20/20
f 23/23/22 20/20/20 24/24/23
f 24/24/23 20/20/20 16/16/16
f 25/25/24 23/23/22 24/24/23
f 24/24/23 16/16/16 26/26/25
f 26/26/25 16/16/16 19/19/19
f 25/25/24 24/24/23 27/27/26
f 27/27/26 24/24/23 26/26/25
f 28/28/27 25/25/24 27/27/26
f 26/26/25 19/19/19 29/29/28
f 29/29/28 19/19/19 17/17/17
f 27/27/26 26/26/25 30/30/29
f 30/30/29 26/26/25 29/29/28
f 28/28/27 27/27/26 31/31/30
f 31/31/30 27/27/26 30/30/29
f 32/32/31 28/28/27 31/31/30
f 29/29/28 17/17/17 33/33/32
f 33/33/32 17/17/17 18/18/18
f 32/32/31 31/31/30 34/34/33
f 32/32/31 34/34/33 35/35/34
f 34/34/33 36/36/35 35/35/34
f 31/31/30 37/37/36 34/34/33
f 31/31/30 30/30/29 37/37/36
f 34/34/33 38/38/37 36/36/35
f 34/34/33 37/37/36 38/38/37
f 38/38/37 39/39/38 36/36/35
f 30/30/29 40/40/39 37/37/36
f 30/30/29 29/29/28 40/40/39
f 29/29/28 33/33/32 40/40/39
f 37/37/36 41/41/40 38/38/37
f 37/37/36 40/40/39 41/41/40
f 38/38/37 42/42/41 39/39/38
f 38/38/37 41/41/40 42/42/41
f 42/42/41 43/43/42 39/39/38
f 40/40/39 44/44/43 41/41/40
f 40/40/39 33/33/32 44/44/43
f 41/41/40 45/45/44 42/42/41
f 41/41/40 44/44/43 45/45/44
f 42/42/41 46/46/45 43/43/42
f 42/42/41 45/45/44 46/46/45
f 43/43/42 46/46/45 47/47/46
f 33/33/32 48/48/47 44/44/43
f 33/33/32 18/18/18 48/48/47
f 18/18/18 49/49/48 48/48/47
f 44/44/43 48/48/47 50/50/49
f 44/44/43 50/50/49 45/45/44
f 48/48/47 49/49/48 51/51/50
f 48/48/47 51/51/50 50/50/49
f 49/49/48 52/52/51 51/51/50
f 45/45/44 50/50/49 53/53/52
f 45/45/44 53/53/52 46/46/45
f 50/50/49 51/51/50 54/54/53
f 50/50/49 54/54/53 53/53/52
f 51/51/50 52/52/51 55/55/54
f 51/51/50 55/55/54 54/54/53
f 52/52/51 56/56/55 55/55/54
f 46/46/45 53/53/52 57/57/56
f 46/46/45 57/57/56 47/47/46
f 47/47/46 57/57/56 58/58/57
f 58/58/57 57/57/56 59/59/58
f 60/60/59 59/59/58 57/57/56
f 53/53/52 61/61/60 57/57/56
f 61/61/60 60/60/59 57/57/56
f 53/53/52 54/54/53 61/61/60
f 61/61/60 62/62/61 60/60/59
f 54/54/53 63/63/62 61/61/60
f 61/61/60 63/63/62 62/62/61
f 54/54/53 55/55/54 63/63/62
f 63/63/62 64/64/63 62/62/61
f 55/55/54 65/65/64 63/63/62
f 63/63/62 65/65/64 64/64/63
f 55/55/54 56/56/55 65/65/64
f 65/65/64 66/66/65 64/64/63
f 56/56/55 67/67/66 65/65/64
f 65/65/64 67/67/66 66/66/65
f 67/67/66 68/68/67 66/66/65
f 69/69/68 70/70/69 71/71/70
f 72/72/71 70/70/69 69/69/68
f 73/73/72 72/72/71 69/69/68
f 72/72/71 74/74/73 70/70/69
f 75/75/74 72/72/71 73/73/72
f 76/76/75 75/75/74 73/73/72
f 77/77/76 74/74/73 72/72/71
f 75/75/74 77/77/76 72/72/71
f 77/77/76 78/78/77 74/74/73
f 79/79/78 75/75/74 76/76/75
f 79/79/78 76/76/75 80/80/79
f 81/81/80 77/77/76 75/75/74
f 79/79/78 81/81/80 75/75/74
f 82/82/81 78/78/77 77/77/76
f 81/81/80 82/82/81 77/77/76
f 82/82/81 83/83/82 78/78/77
f 84/84/83 79/79/78 80/80/79
f 84/84/83 80/80/79 85/85/84
f 86/86/85 81/81/80 79/79/78
f 84/84/83 86/86/85 79/79/78
f 87/87/86 82/82/81 81/81/80
f 86/86/85 87/87/86 81/81/80
f 82/82/81 88/88/87 83/83/82
f 87/87/86 88/88/87 82/82/81
f 83/83/82 88/88/87 89/89/88
f 90/90/89 89/89/88 88/88/87
f 91/91/90 90/90/89 88/88/87
f 92/92/91 91/91/90 88/88/87
f 92/92/91 88/88/87 87/87/86
f 92/92/91 93/93/92 91/91/90
f 94/94/93 92/92/91 87/87/86
f 94/94/93 87/87/86 86/86/85
f 95/95/94 93/93/92 92/92/91
f 95/95/94 92/92/91 94/94/93
f 95/95/94 96/96/95 93/93/92
f 97/97/96 94/94/93 86/86/85
f 97/97/96 86/86/85 84/84/83
f 98/98/97 95/95/94 94/94/93
f 98/98/97 94/94/93 97/97/96
f 99/99/98 96/96/95 95/95/94
f 99/99/98 95/95/94 98/98/97
f 99/99/98 100/100/99 96/96/95
f 101/101/100 97/97/96 84/84/83
f 101/101/100 84/84/83 85/85/84
f 102/102/101 100/100/99 99/99/98
f 102/102/101 103/103/102 100/100/99
f 104/104/103 103/103/102 102/102/101
f 102/102/101 99/99/98 105/105/104
f 105/105/104 99/99/98 98/98/97
f 104/104/103 102/102/101 106/106/105
f 106/106/105 102/102/101 105/105/104
f 104/104/103 106/106/105 107/107/106
f 105/105/104 98/98/97 108/108/107
f 108/108/107 98/98/97 97/97/96
f 108/108/107 97/97/96 101/101/100
f 106/106/105 105/105/104 109/109/108
f 109/109/108 105/105/104 108/108/107
f 106/106/105 110/110/109 107/107/106
f 106/106/105 109/109/108 110/110/109
f 107/107/106 110/110/109 111/111/110
f 109/109/108 108/108/107 112/112/111
f 112/112/111 108/108/107 101/101/100
f 109/109/108 113/113/112 110/110/109
f 109/109/108 112/112/111 113/113/112
f 110/110/109 114/114/113 111/111/110
f 110/110/109 113/113/112 114/114/113
f 111/111/110 114/114/113 115/115/114
f 112/112/111 101/101/100 116/116/115
f 101/101/100 85/85/84 116/116/115
f 85/85/84 117/117/116 116/116/115
f 112/112/111 116/116/115 118/118/117
f 112/112/111 118/118/117 113/113/112
f 117/117/116 119/119/118 116/116/115
f 118/118/117 116/116/115 119/119/118
f 117/117/116 120/120/119 119/119/118
f 113/113/112 118/118/117 121/121/120
f 113/113/112 121/121/120 114/114/113
f 118/118/117 119/119/118 122/122/121
f 118/118/117 122/122/121 121/121/120
f 120/120/119 123/123/122 119/119/118
f 122/122/121 119/119/118 123/123/122
f 120/120/119 124/124/123 123/123/122
f 121/121/120 122/122/121 125/125/124
f 124/124/123 126/126/125 123/123/122
f 124/124/123 127/127/126 126/126/125
f 122/122/121 123/123/122 128/128/7
f 123/123/122 126/126/125 128/128/7
f 122/122/121 128/128/7 125/125/124
f 127/127/126 129/129/127 126/126/125
f 127/127/126 130/130/128 129/129/127
f 131/131/129 126/126/125 129/129/127
f 128/128/7 126/126/125 131/131/129
f 132/132/130 128/128/7 131/131/129
f 125/125/124 128/128/7 132/132/130
f 133/133/131 125/125/124 132/132/130
f 134/134/132 125/125/124 133/133/131
f 121/121/120 125/125/124 134/134/132
f 114/114/113 121/121/120 134/134/132
f 135/135/133 134/134/132 133/133/131
f 114/114/113 134/134/132 115/115/114
f 136/136/128 134/134/132 135/135/133
f 115/115/114 134/134/132 136/136/128
