# Blender 4.1.1
# www.blender.org
mtllib RandomDecoDoohickey.mtl
o Randomdecodoohickey
v 0.001702 0.018926 0.126939
v 0.003075 0.024012 0.116973
v 0.001702 0.023079 0.121195
v 0.003358 0.017482 0.123708
v 0.001701 0.002035 0.139845
v 0.003557 0.000278 0.135938
v 0.001701 -0.022319 0.152981
v 0.004157 -0.038616 0.151028
v 0.001701 -0.023763 0.154710
v 0.001701 -0.025269 0.159372
v 0.001701 -0.027926 0.164141
v 0.001701 -0.031400 0.167685
v 0.001964 -0.034792 0.169437
v 0.002269 -0.038183 0.170475
v 0.001702 0.023079 0.121195
v 0.003075 0.024012 0.116973
v -0.003075 0.024012 0.116973
v -0.001702 0.023079 0.121195
v 0.001702 0.018926 0.126939
v -0.001702 0.018926 0.126939
v 0.001701 0.002035 0.139845
v -0.001701 0.002035 0.139845
v 0.001701 -0.022319 0.152981
v -0.001701 -0.022319 0.152981
v 0.001701 -0.023763 0.154710
v -0.001701 -0.023763 0.154710
v 0.001701 -0.025269 0.159372
v -0.001701 -0.025269 0.159372
v 0.001701 -0.027926 0.164141
v -0.001701 -0.027926 0.164141
v 0.001701 -0.031400 0.167685
v -0.001701 -0.031400 0.167685
v -0.001964 -0.034792 0.169437
v 0.001964 -0.034792 0.169437
v 0.002269 -0.038183 0.170475
v -0.002269 -0.038183 0.170475
v -0.003360 0.017482 0.123708
v -0.001702 0.023079 0.121195
v -0.003075 0.024012 0.116973
v -0.001702 0.018926 0.126939
v -0.003555 0.000278 0.135938
v -0.001701 0.002035 0.139845
v -0.001701 -0.022319 0.152981
v -0.004155 -0.038616 0.151028
v -0.001701 -0.023763 0.154710
v -0.001701 -0.025269 0.159372
v -0.001701 -0.027926 0.164141
v -0.001964 -0.034792 0.169437
v -0.002269 -0.038183 0.170475
v -0.001701 -0.031400 0.167685
vn 0.9023 0.2740 0.3327
vn 0.3793 0.8762 0.2973
vn 0.4641 0.7773 0.4249
vn 0.8968 0.2937 0.3309
vn 0.9129 0.2229 0.3421
vn 0.9212 0.2112 0.3266
vn 0.9605 0.1174 0.2523
vn 0.9767 0.1194 0.1781
vn 0.9879 0.1409 0.0646
vn 0.9879 0.1409 0.0645
vn 0.9889 0.1135 0.0960
vn 0.9889 0.1137 0.0959
vn 0.9889 0.1136 0.0959
vn 0.9887 0.1174 0.0937
vn 0.4640 0.7773 0.4249
vn 0.3793 0.8762 0.2972
vn -0.3793 0.8762 0.2972
vn -0.4640 0.7773 0.4248
vn -0.0000 0.6638 0.7479
vn -0.0000 0.5342 0.8453
vn -0.0001 0.4990 0.8666
vn -0.0000 0.4990 0.8666
vn -0.0000 0.9081 0.4188
vn -0.0000 0.9149 0.4036
vn -0.0000 0.8049 0.5934
vn -0.0000 0.6034 0.7974
vn -0.0000 0.3697 0.9291
vn -0.0000 0.3698 0.9291
vn -0.0000 0.2930 0.9561
vn -0.0000 0.2934 0.9560
vn -0.8968 0.2937 0.3309
vn -0.4640 0.7773 0.4249
vn -0.3793 0.8762 0.2973
vn -0.9023 0.2740 0.3327
vn -0.9213 0.2112 0.3266
vn -0.9129 0.2229 0.3421
vn -0.9605 0.1174 0.2524
vn -0.9767 0.1194 0.1781
vn -0.9868 0.1449 0.0725
vn -0.9868 0.1449 0.0724
vn -0.9888 0.1194 0.0900
vn -0.9889 0.1136 0.0960
vn -0.9886 0.1174 0.0939
vt 1.791992 0.877014
vt 1.772461 0.897644
vt 1.785156 0.891724
vt 1.772461 0.876526
vt 1.791992 0.826294
vt 1.772461 0.825684
vt 1.791992 0.758179
vt 1.772461 0.722168
vt 1.794922 0.753174
vt 1.804688 0.745850
vt 1.813477 0.735352
vt 1.817383 0.726318
vt 1.819336 0.717773
vt 1.818359 0.709473
vt 0.613770 0.894165
vt 0.613770 0.903870
vt 0.604492 0.903870
vt 0.604492 0.894165
vt 0.613770 0.883179
vt 0.604492 0.883179
vt 0.613770 0.838501
vt 0.604492 0.838501
vt 0.613770 0.773926
vt 0.604492 0.773926
vt 0.613770 0.768677
vt 0.604492 0.768677
vt 0.613770 0.754272
vt 0.604492 0.754272
vt 0.613770 0.745605
vt 0.604492 0.745605
vt 0.613770 0.737061
vt 0.604492 0.737061
vt 0.604492 0.728027
vt 0.613770 0.728027
vt 0.613770 0.718994
vt 0.604492 0.718994
vt 0.772949 0.876526
vt 0.785156 0.891724
vt 0.772949 0.897644
vt 0.791992 0.877014
vt 0.772949 0.825684
vt 0.791992 0.826294
vt 0.791992 0.758179
vt 0.772949 0.722168
vt 0.794922 0.753174
vt 0.804688 0.745850
vt 0.813965 0.735352
vt 0.819336 0.717773
vt 0.818848 0.709473
vt 0.817871 0.726318
s 1
usemtl m_Body
f 1/1/1 2/2/2 3/3/3
f 4/4/4 2/2/2 1/1/1
f 5/5/5 4/4/4 1/1/1
f 6/6/6 4/4/4 5/5/5
f 7/7/7 6/6/6 5/5/5
f 8/8/8 6/6/6 7/7/7
f 8/8/8 7/7/7 9/9/9
f 8/8/8 9/9/9 10/10/10
f 8/8/8 10/10/10 11/11/11
f 8/8/8 11/11/11 12/12/12
f 8/8/8 12/12/12 13/13/13
f 14/14/14 8/8/8 13/13/13
f 15/15/15 16/16/16 17/17/17
f 18/18/18 15/15/15 17/17/17
f 19/19/19 15/15/15 18/18/18
f 20/20/19 19/19/19 18/18/18
f 21/21/20 19/19/19 20/20/19
f 21/21/20 20/20/19 22/22/20
f 23/23/21 21/21/20 22/22/20
f 23/23/21 22/22/20 24/24/22
f 25/25/23 23/23/21 24/24/22
f 25/25/23 24/24/22 26/26/23
f 27/27/24 25/25/23 26/26/23
f 27/27/24 26/26/23 28/28/24
f 29/29/25 27/27/24 28/28/24
f 29/29/25 28/28/24 30/30/25
f 31/31/26 29/29/25 30/30/25
f 31/31/26 30/30/25 32/32/26
f 33/33/27 31/31/26 32/32/26
f 33/33/27 34/34/28 31/31/26
f 35/35/29 34/34/28 33/33/27
f 36/36/30 35/35/29 33/33/27
f 37/37/31 38/38/32 39/39/33
f 40/40/34 38/38/32 37/37/31
f 41/41/35 40/40/34 37/37/31
f 41/41/35 42/42/36 40/40/34
f 43/43/37 42/42/36 41/41/35
f 44/44/38 43/43/37 41/41/35
f 44/44/38 45/45/39 43/43/37
f 44/44/38 46/46/40 45/45/39
f 44/44/38 47/47/41 46/46/40
f 48/48/42 47/47/41 44/44/38
f 49/49/43 48/48/42 44/44/38
f 48/48/42 50/50/42 47/47/41
