# Blender 4.1.1
# www.blender.org
mtllib Nine Background.mtl
o Nine_Outline
v -0.632318 -2.208097 0.766572
v 0.595092 -2.208097 0.766572
v 0.517020 -0.108147 0.766572
v 1.498557 -0.102501 0.766572
v 0.622350 0.121452 0.766572
v 1.540775 0.277461 0.766572
v 0.639433 0.315029 0.766572
v 1.507001 0.602540 0.766572
v 0.565180 0.580749 0.766572
v 1.355016 1.012054 0.766572
v 0.431646 0.768912 0.766572
v 1.076377 1.379351 0.766572
v 0.200385 0.896641 0.766572
v 0.861066 1.569332 0.766572
v 0.121118 0.924083 0.766572
v 0.464216 1.763535 0.766572
v 0.031513 0.924083 0.766572
v 0.058924 1.831083 0.766573
v -0.218766 0.902369 0.768660
v -0.059471 0.919256 0.768660
v -0.218766 1.804701 0.768660
v -0.059471 1.821588 0.768660
v -0.387638 0.809120 0.768660
v -0.387638 1.788182 0.768660
v -0.607172 0.558875 0.768660
v -0.548066 1.727971 0.768660
v -0.662055 0.276015 0.768660
v -0.704273 1.664344 0.768660
v -0.649390 0.159212 0.768660
v -0.944916 1.512312 0.768660
v -1.181337 -0.047656 0.768660
v -1.139118 1.343440 0.768660
v -1.371317 -0.251602 0.768660
v -1.278438 1.178790 0.768660
v -1.464197 -0.251602 0.768660
v -1.426201 0.928959 0.768660
v -1.531746 0.001071 0.768660
v -1.531746 0.586655 0.768660
v -0.590284 -0.044734 0.768660
v -1.004021 -0.251602 0.768660
v -1.215111 -0.251602 0.768660
v -1.244663 -0.517575 0.768660
v -1.337543 -0.517575 0.768660
v -0.438300 -0.251602 0.768660
v -0.877367 -0.517575 0.768660
v -1.088457 -0.517575 0.768660
v -1.046239 -0.766661 0.768660
v -1.139118 -0.766661 0.768660
v -0.353864 -0.374034 0.768660
v -0.678942 -0.766661 0.768660
v -0.890032 -0.766661 0.768660
v -0.801374 -0.990416 0.768660
v -0.894254 -0.990416 0.768660
v -0.252540 -0.479579 0.768660
v -0.434078 -0.990417 0.768660
v -0.645168 -0.990417 0.768660
v -0.619837 -1.087518 0.768660
v -0.712717 -1.087517 0.768660
v -0.138552 -0.576680 0.768660
v -0.252541 -1.087518 0.768660
v -0.463631 -1.087518 0.768660
v -0.396082 -1.197284 0.768660
v -0.488961 -1.197284 0.768660
v 0.048815 -0.705950 0.768660
v -0.239875 -1.197285 0.768660
v -0.197405 -1.233973 0.768660
v -0.227210 -1.252167 0.768660
v -0.197406 -1.232414 0.768660
v -0.632318 -2.208097 0.682913
v 0.595092 -2.208097 0.682913
v 0.517020 -0.108147 0.682913
v 1.498557 -0.102501 0.682913
v 0.622350 0.121452 0.682913
v 1.540775 0.277461 0.682914
v 0.639433 0.315030 0.682914
v 1.507001 0.602540 0.682914
v 0.565180 0.580749 0.682914
v 1.355016 1.012054 0.682914
v 0.431646 0.768912 0.682914
v 1.076377 1.379351 0.682914
v 0.200385 0.896641 0.682914
v 0.861066 1.569332 0.682914
v 0.121118 0.924083 0.682914
v 0.464216 1.763535 0.682914
v 0.031513 0.924083 0.682914
v 0.058924 1.831083 0.682914
v -0.218766 0.902369 0.685001
v -0.059471 0.919256 0.685001
v -0.218766 1.804701 0.685001
v -0.059471 1.821588 0.685001
v -0.387638 0.809120 0.685001
v -0.387638 1.788182 0.685001
v -0.607172 0.558875 0.685001
v -0.548066 1.727971 0.685001
v -0.662055 0.276015 0.685001
v -0.704273 1.664344 0.685001
v -0.649390 0.159212 0.685001
v -0.944916 1.512312 0.685001
v -1.181337 -0.047656 0.685001
v -1.139118 1.343440 0.685001
v -1.371318 -0.251602 0.685001
v -1.278438 1.178790 0.685001
v -1.464197 -0.251602 0.685001
v -1.426201 0.928959 0.685001
v -1.531746 0.001071 0.685001
v -1.531746 0.586655 0.685001
v -0.590284 -0.044734 0.685001
v -1.004021 -0.251602 0.685001
v -1.215111 -0.251602 0.685001
v -1.244663 -0.517575 0.685001
v -1.337543 -0.517575 0.685001
v -0.438300 -0.251602 0.685001
v -0.877367 -0.517575 0.685001
v -1.088457 -0.517575 0.685001
v -1.046239 -0.766661 0.685001
v -1.139119 -0.766661 0.685001
v -0.353864 -0.374034 0.685001
v -0.678942 -0.766661 0.685001
v -0.890032 -0.766661 0.685001
v -0.801375 -0.990417 0.685001
v -0.894254 -0.990417 0.685001
v -0.252540 -0.479579 0.685001
v -0.434078 -0.990417 0.685001
v -0.645168 -0.990417 0.685001
v -0.619837 -1.087518 0.685001
v -0.712717 -1.087518 0.685001
v -0.138552 -0.576680 0.685001
v -0.252541 -1.087518 0.685001
v -0.463631 -1.087518 0.685001
v -0.396082 -1.197285 0.685001
v -0.488961 -1.197285 0.685001
v 0.048815 -0.705950 0.685001
v -0.174211 -1.184232 0.685001
v -0.239875 -1.197285 0.685001
v -0.197406 -1.233973 0.685001
v -0.227210 -1.252168 0.685001
v -0.197406 -1.232414 0.685001
v 0.319276 -0.008830 0.766572
v -0.822681 -2.320917 0.766572
v 0.716867 -2.392859 0.766572
v 1.712517 -0.158958 0.766572
v 0.408451 0.178140 0.766572
v 1.762057 0.276672 0.766572
v 0.419090 0.294648 0.766572
v 1.722485 0.652869 0.766572
v 0.365431 0.485528 0.766572
v 1.548978 1.118568 0.766572
v 0.284224 0.603887 0.766572
v 1.238528 1.529928 0.766572
v 0.110367 0.694495 0.766572
v 0.984003 1.753323 0.766572
v 0.084414 0.705864 0.766572
v 0.531747 1.974262 0.766573
v -0.081542 2.002068 0.766573
v -0.127304 0.769993 0.766572
v -0.152302 0.691302 0.768660
v 0.105041 0.771262 0.768660
v 0.088523 1.986100 0.768660
v -0.241202 2.024844 0.768660
v -0.248910 0.636723 0.768660
v -0.437714 2.003725 0.768660
v -0.408487 0.461454 0.768660
v -0.628690 1.934045 0.768660
v -0.440965 0.266764 0.768660
v -0.805501 1.861116 0.768660
v -0.432302 0.202099 0.768660
v -1.076994 1.689855 0.768660
v -1.296641 1.498852 0.768660
v -1.458769 1.307036 0.768660
v -1.628558 1.018502 0.768660
v -1.750560 0.619623 0.768660
v -1.751145 -0.027750 0.768660
v -1.671850 -0.328066 0.768660
v -0.391793 0.053080 0.768660
v -1.525198 -0.634845 0.768661
v -0.258034 -0.123264 0.768660
v -0.182409 -0.234141 0.768660
v -1.300796 -0.917746 0.768661
v -0.100787 -0.318528 0.768660
v -1.022065 -1.171056 0.768661
v -0.003799 -0.401158 0.768660
v -0.813646 -1.284443 0.768661
v 0.263248 -0.651316 0.769159
v -0.560955 -1.406529 0.768661
v -0.131338 -1.451604 0.769135
v 0.000092 -1.333776 0.769412
v 0.000092 -1.332217 0.769412
v 0.319276 -0.008830 0.682913
v -0.822681 -2.320917 0.682913
v 0.716867 -2.392859 0.682913
v 1.712517 -0.158958 0.682913
v 0.408451 0.178140 0.682913
v 1.762057 0.276672 0.682914
v 0.419090 0.294648 0.682914
v 1.722485 0.652869 0.682914
v 0.365431 0.485528 0.682914
v 1.548978 1.118568 0.682914
v 0.284224 0.603887 0.682914
v 1.238528 1.529928 0.682914
v 0.110367 0.694495 0.682914
v 0.984003 1.753323 0.682914
v 0.084414 0.705864 0.682914
v 0.531747 1.974262 0.682914
v -0.081542 2.002068 0.682914
v -0.127304 0.769993 0.682914
v -0.152302 0.691302 0.685001
v 0.105041 0.771262 0.685001
v 0.088523 1.986100 0.685001
v -0.241202 2.024844 0.685001
v -0.248910 0.636723 0.685001
v -0.437714 2.003725 0.685001
v -0.408487 0.461454 0.685001
v -0.628690 1.934045 0.685001
v -0.440965 0.266764 0.685001
v -0.805501 1.861116 0.685001
v -0.432302 0.202099 0.685001
v -1.076994 1.689855 0.685001
v -1.296641 1.498852 0.685001
v -1.458769 1.307036 0.685001
v -1.628558 1.018502 0.685001
v -1.750560 0.619623 0.685001
v -1.751145 -0.027750 0.685001
v -1.671850 -0.328066 0.685002
v -0.391793 0.053080 0.685001
v -1.525198 -0.634845 0.685002
v -0.258034 -0.123264 0.685001
v -0.182409 -0.234141 0.685001
v -1.300797 -0.917746 0.685002
v -0.100787 -0.318528 0.685001
v -1.022065 -1.171056 0.685002
v -0.003799 -0.401158 0.685001
v -0.813646 -1.284443 0.685002
v 0.023287 -1.284035 0.685753
v 0.263248 -0.651316 0.685500
v -0.560955 -1.406529 0.685003
v -0.131338 -1.451604 0.685476
v 0.000092 -1.333776 0.685753
v 0.000092 -1.332217 0.685753
vn -0.0000 -0.0000 1.0000
vn -0.0000 -0.0000 -1.0000
vn 0.0003 -0.0006 -1.0000
vn 0.0005 -0.0011 -1.0000
vn 0.0002 -0.0005 -1.0000
vn 0.0031 -0.0015 -1.0000
vn 0.0033 -0.0007 -1.0000
vn 0.0038 -0.0000 -1.0000
vn 0.0028 -0.0013 -1.0000
vn -0.0005 0.0011 1.0000
vn -0.0003 0.0006 1.0000
vn -0.0002 0.0005 1.0000
vn -0.0029 0.0014 1.0000
vn -0.0033 0.0008 1.0000
vn -0.0034 0.0006 1.0000
vn 0.0013 0.0002 -1.0000
vn 0.0006 0.0001 -1.0000
vn 0.8967 -0.4421 0.0209
vn -0.8966 0.4428 -0.0000
vn -0.8996 0.4367 -0.0000
vn -0.0467 -0.9989 -0.0000
vn 0.9648 -0.2631 -0.0000
vn 0.9134 -0.4071 -0.0000
vn -0.9643 0.2648 -0.0000
vn 1.0000 -0.0042 -0.0000
vn -0.9958 -0.0914 -0.0000
vn 0.9735 0.2287 -0.0000
vn -0.9057 -0.4238 -0.0000
vn 0.8768 0.4808 -0.0000
vn -0.6631 -0.7485 -0.0000
vn 0.7327 0.6805 -0.0000
vn -0.4320 -0.9019 -0.0000
vn 0.5542 0.8324 -0.0000
vn -0.3462 -0.9382 -0.0000
vn 0.2473 0.9689 -0.0000
vn -0.9993 0.0371 -0.0000
vn -0.2899 -0.9571 -0.0000
vn 0.0453 0.9990 -0.0000
vn 0.2967 -0.9550 -0.0000
vn 0.3965 -0.9180 -0.0000
vn 0.9999 0.0136 -0.0000
vn 0.0050 1.0000 -0.0000
vn 0.1167 0.9932 -0.0000
vn 0.6235 -0.7818 -0.0000
vn -0.2265 0.9740 -0.0000
vn 0.7394 -0.6732 -0.0000
vn -0.3621 0.9321 -0.0000
vn 0.9864 -0.1645 -0.0000
vn 0.9999 -0.0161 -0.0000
vn -0.4591 0.8884 -0.0000
vn 0.9802 0.1980 -0.0000
vn -0.5966 0.8025 -0.0000
vn -0.7121 0.7021 -0.0000
vn -0.8157 0.5784 -0.0000
vn -0.9154 0.4026 -0.0000
vn -0.9917 -0.1283 -0.0000
vn -0.9889 0.1483 -0.0000
vn -0.9387 -0.3448 -0.0000
vn 0.8973 0.4414 -0.0000
vn -0.8482 -0.5297 -0.0000
vn 0.8117 0.5841 -0.0000
vn 0.7753 0.6316 -0.0000
vn -0.7304 -0.6830 -0.0000
vn 0.6844 0.7291 -0.0000
vn -0.5794 -0.8151 -0.0000
vn 0.6663 0.7457 -0.0000
vn -0.4566 -0.8897 -0.0000
vn 0.6837 0.7298 -0.0000
vn -0.2737 -0.9618 -0.0000
vn -0.2738 -0.9618 -0.0000
vn -0.1043 -0.9945 -0.0000
vn -0.0006 -0.0001 1.0000
vn -0.0013 -0.0002 1.0000
vn 0.0029 -0.0014 -1.0000
vn -0.0033 0.0007 1.0000
vn -0.0028 0.0013 1.0000
vt 0.000000 0.000000
vt 1.000000 0.000000
vt 1.000000 1.000000
vt 0.000000 1.000000
s 1
f 1/1/1 2/2/1 4/3/1 3/4/1
f 3/4/1 4/3/1 6/3/1 5/4/1
f 5/4/1 6/3/1 8/3/1 7/4/1
f 7/4/1 8/3/1 10/3/1 9/4/1
f 9/4/1 10/3/1 12/3/1 11/4/1
f 11/4/1 12/3/1 14/3/1 13/4/1
f 13/4/1 14/3/1 16/3/1 15/4/1
f 15/4/1 16/3/1 18/3/1 17/4/1
f 19/1/1 20/2/1 22/3/1 21/4/1
f 19/1/1 21/4/1 24/4/1 23/1/1
f 23/1/1 24/4/1 26/4/1 25/1/1
f 25/1/1 26/4/1 28/4/1 27/1/1
f 27/1/1 28/4/1 30/4/1 29/1/1
f 29/1/1 30/4/1 32/4/1 31/1/1
f 31/1/1 32/4/1 34/4/1 33/1/1
f 33/1/1 34/4/1 36/4/1 35/1/1
f 35/1/1 36/4/1 38/4/1 37/1/1
f 31/1/1 33/1/1 41/1/1 40/1/1
f 29/1/1 31/1/1 40/1/1 39/1/1
f 33/1/1 35/1/1 43/1/1 42/1/1
f 39/1/1 40/1/1 45/1/1 44/1/1
f 41/1/1 33/1/1 42/1/1 46/1/1
f 40/1/1 41/1/1 46/1/1 45/1/1
f 44/1/1 45/1/1 50/1/1 49/1/1
f 45/1/1 46/1/1 51/1/1 50/1/1
f 42/1/1 43/1/1 48/1/1 47/1/1
f 46/1/1 42/1/1 47/1/1 51/1/1
f 51/1/1 47/1/1 52/1/1 56/1/1
f 49/1/1 50/1/1 55/1/1 54/1/1
f 50/1/1 51/1/1 56/1/1 55/1/1
f 47/1/1 48/1/1 53/1/1 52/1/1
f 56/1/1 52/1/1 57/1/1 61/1/1
f 54/1/1 55/1/1 60/1/1 59/1/1
f 55/1/1 56/1/1 61/1/1 60/1/1
f 52/1/1 53/1/1 58/1/1 57/1/1
f 61/1/1 57/1/1 62/1/1 65/1/1
f 57/1/1 58/1/1 63/1/1 62/1/1
f 65/1/1 62/1/1 66/1/1 68/1/1
f 62/1/1 63/1/1 67/1/1 66/1/1
f 69/1/2 71/4/2 72/3/2 70/2/2
f 71/4/2 73/4/2 74/3/2 72/3/2
f 73/4/2 75/4/2 76/3/2 74/3/2
f 75/4/2 77/4/2 78/3/2 76/3/2
f 77/4/2 79/4/2 80/3/2 78/3/2
f 79/4/2 81/4/2 82/3/2 80/3/2
f 81/4/2 83/4/2 84/3/2 82/3/2
f 83/4/2 85/4/2 86/3/2 84/3/2
f 87/1/2 89/4/2 90/3/2 88/2/2
f 87/1/2 91/1/2 92/4/2 89/4/2
f 91/1/2 93/1/2 94/4/2 92/4/2
f 93/1/2 95/1/2 96/4/2 94/4/2
f 95/1/2 97/1/2 98/4/2 96/4/2
f 97/1/2 99/1/2 100/4/2 98/4/2
f 99/1/2 101/1/2 102/4/2 100/4/2
f 101/1/2 103/1/2 104/4/2 102/4/2
f 103/1/2 105/1/2 106/4/2 104/4/2
f 99/1/2 108/1/2 109/1/2 101/1/2
f 97/1/2 107/1/2 108/1/2 99/1/2
f 101/1/2 110/1/2 111/1/2 103/1/2
f 107/1/2 112/1/2 113/1/2 108/1/2
f 109/1/2 114/1/2 110/1/2 101/1/2
f 108/1/2 113/1/2 114/1/2 109/1/2
f 112/1/2 117/1/2 118/1/2 113/1/2
f 113/1/2 118/1/2 119/1/2 114/1/2
f 110/1/2 115/1/2 116/1/2 111/1/2
f 114/1/2 119/1/2 115/1/2 110/1/2
f 119/1/2 124/1/2 120/1/2 115/1/2
f 117/1/2 122/1/2 123/1/2 118/1/2
f 118/1/2 123/1/2 124/1/2 119/1/2
f 115/1/2 120/1/2 121/1/2 116/1/2
f 124/1/2 129/1/2 125/1/2 120/1/2
f 122/1/2 127/1/2 128/1/2 123/1/2
f 123/1/2 128/1/2 129/1/2 124/1/2
f 120/1/2 125/1/2 126/1/2 121/1/2
f 129/1/2 134/1/2 130/1/2 125/1/2
f 127/1/2 132/1/2 133/1/2 128/1/2
f 128/1/2 133/1/2 134/1/2 129/1/2
f 125/1/2 130/1/2 131/1/2 126/1/2
f 134/1/2 137/1/2 135/1/2 130/1/2
f 16/3/1 14/3/1 151/3/1 153/3/1
f 130/1/2 135/1/2 136/1/2 131/1/2
f 81/4/2 79/4/2 198/4/2 200/4/2
f 13/4/1 15/4/1 152/4/1 150/4/1
f 44/1/1 49/1/1 177/1/1 176/1/1
f 78/3/2 80/3/2 199/3/2 197/3/2
f 14/3/1 12/3/1 149/3/1 151/3/1
f 79/4/2 77/4/2 196/4/2 198/4/2
f 11/4/1 13/4/1 150/4/1 148/4/1
f 112/1/2 107/1/2 224/1/2 226/1/2
f 76/3/2 78/3/2 197/3/2 195/3/2
f 12/3/1 10/3/1 147/3/1 149/3/1
f 103/1/2 111/1/2 225/1/2 223/1/2
f 77/4/2 75/4/2 194/4/2 196/4/2
f 9/4/1 11/4/1 148/4/1 146/4/1
f 39/1/1 44/1/1 176/1/1 174/1/1
f 74/3/2 76/3/2 195/3/2 193/3/2
f 10/3/1 8/3/1 145/3/1 147/3/1
f 43/1/1 35/1/1 173/1/1 175/1/1
f 75/4/2 73/4/2 192/4/2 194/4/2
f 7/4/1 9/4/1 146/4/1 144/4/1
f 72/3/2 74/3/2 193/3/2 191/3/2
f 8/3/1 6/3/1 143/3/1 145/3/1
f 107/1/2 97/1/2 216/1/2 224/1/2
f 73/4/2 71/4/2 188/4/2 192/4/2
f 5/4/1 7/4/1 144/4/1 142/4/1
f 131/1/3 136/1/4 236/1/4 235/1/5
f 6/3/1 4/3/1 141/3/1 143/3/1
s 0
f 137/1/6 133/1/6 233/1/6 238/1/6
s 1
f 29/1/1 39/1/1 174/1/1 166/1/1
f 70/2/2 72/3/2 191/3/2 190/2/2
f 3/4/1 5/4/1 142/4/1 138/4/1
f 135/1/7 137/1/8 238/1/8 237/1/7
f 69/1/2 70/2/2 190/2/2 189/1/2
f 104/4/2 106/4/2 221/4/2 220/4/2
f 136/1/9 135/1/7 237/1/7 236/1/9
f 71/4/2 69/1/2 189/1/2 188/4/2
f 105/1/2 103/1/2 223/1/2 222/1/2
f 126/1/2 131/1/3 235/1/5 232/1/2
f 67/1/10 63/1/11 184/1/12 185/1/10
f 4/3/1 2/2/1 140/2/1 141/3/1
f 106/4/2 105/1/2 222/1/2 221/4/2
f 64/1/13 68/1/14 187/1/15 183/1/13
f 2/2/1 1/1/1 139/1/1 140/2/1
f 102/4/2 104/4/2 220/4/2 219/4/2
f 38/4/1 36/4/1 170/4/1 171/4/1
f 132/1/16 127/1/17 231/1/17 234/1/16
f 1/1/1 3/4/1 138/4/1 139/1/1
f 60/1/1 65/1/1 68/1/1 64/1/1 59/1/1
f 61/1/1 65/1/1 60/1/1
f 35/1/1 37/1/1 172/1/1 173/1/1
f 234/1/18 183/1/18 187/1/18 186/1/18 185/1/18 236/1/18 237/1/18 238/1/18 233/1/18
f 139/1/19 138/4/20 188/4/20 189/1/19
f 140/2/21 139/1/21 189/1/21 190/2/21
f 141/3/22 140/2/23 190/2/23 191/3/22
f 138/4/20 142/4/24 192/4/24 188/4/20
f 143/3/25 141/3/22 191/3/22 193/3/25
f 142/4/24 144/4/26 194/4/26 192/4/24
f 145/3/27 143/3/25 193/3/25 195/3/27
f 144/4/26 146/4/28 196/4/28 194/4/26
f 147/3/29 145/3/27 195/3/27 197/3/29
f 146/4/28 148/4/30 198/4/30 196/4/28
f 149/3/31 147/3/29 197/3/29 199/3/31
f 148/4/30 150/4/32 200/4/32 198/4/30
f 151/3/33 149/3/31 199/3/31 201/3/33
f 150/4/32 152/4/34 202/4/34 200/4/32
f 153/3/35 151/3/33 201/3/33 203/3/35
f 155/4/36 154/3/36 204/3/36 205/4/36
f 152/4/34 155/4/37 205/4/37 202/4/34
f 154/3/38 153/3/35 203/3/35 204/3/38
f 157/2/39 156/1/40 206/1/40 207/2/39
f 158/3/41 157/2/41 207/2/41 208/3/41
f 159/4/42 158/3/43 208/3/43 209/4/42
f 156/1/40 160/1/44 210/1/44 206/1/40
f 161/4/45 159/4/42 209/4/42 211/4/45
f 160/1/44 162/1/46 212/1/46 210/1/44
f 163/4/47 161/4/45 211/4/45 213/4/47
f 162/1/48 164/1/49 214/1/49 212/1/48
f 165/4/50 163/4/47 213/4/47 215/4/50
f 164/1/49 166/1/51 216/1/51 214/1/49
f 167/4/52 165/4/50 215/4/50 217/4/52
f 168/4/53 167/4/52 217/4/52 218/4/53
f 169/4/54 168/4/53 218/4/53 219/4/54
f 170/4/55 169/4/54 219/4/54 220/4/55
f 172/1/56 171/4/57 221/4/57 222/1/56
f 173/1/58 172/1/56 222/1/56 223/1/58
f 171/4/57 170/4/55 220/4/55 221/4/57
f 166/1/51 174/1/59 224/1/59 216/1/51
f 175/1/60 173/1/58 223/1/58 225/1/60
f 174/1/59 176/1/61 226/1/61 224/1/59
f 176/1/61 177/1/62 227/1/62 226/1/61
f 178/1/63 175/1/60 225/1/60 228/1/63
f 177/1/62 179/1/64 229/1/64 227/1/62
f 180/1/65 178/1/63 228/1/63 230/1/65
f 179/1/64 181/1/66 231/1/66 229/1/64
f 182/1/67 180/1/65 230/1/65 232/1/67
f 181/1/66 183/1/68 234/1/68 231/1/66
f 184/1/69 182/1/67 232/1/67 235/1/70
f 185/1/71 184/1/69 235/1/70 236/1/71
f 80/3/2 82/3/2 201/3/2 199/3/2
f 17/4/1 18/3/1 154/3/1 155/4/1
f 117/1/2 112/1/2 226/1/2 227/1/2
f 15/4/1 17/4/1 155/4/1 152/4/1
f 83/4/2 81/4/2 200/4/2 202/4/2
f 48/1/1 43/1/1 175/1/1 178/1/1
f 18/3/1 16/3/1 153/3/1 154/3/1
f 82/3/2 84/3/2 203/3/2 201/3/2
f 86/3/2 85/4/2 205/4/2 204/3/2
f 20/2/1 19/1/1 156/1/1 157/2/1
f 85/4/2 83/4/2 202/4/2 205/4/2
f 111/1/2 116/1/2 228/1/2 225/1/2
f 22/3/1 20/2/1 157/2/1 158/3/1
f 84/3/2 86/3/2 204/3/2 203/3/2
f 21/4/1 22/3/1 158/3/1 159/4/1
f 87/1/2 88/2/2 207/2/2 206/1/2
f 19/1/1 23/1/1 160/1/1 156/1/1
f 88/2/2 90/3/2 208/3/2 207/2/2
f 49/1/1 54/1/1 179/1/1 177/1/1
f 24/4/1 21/4/1 159/4/1 161/4/1
f 90/3/2 89/4/2 209/4/2 208/3/2
f 53/1/1 48/1/1 178/1/1 180/1/1
f 23/1/1 25/1/1 162/1/1 160/1/1
f 91/1/2 87/1/2 206/1/2 210/1/2
f 122/1/2 117/1/2 227/1/2 229/1/2
f 26/4/1 24/4/1 161/4/1 163/4/1
f 89/4/2 92/4/2 211/4/2 209/4/2
f 116/1/2 121/1/2 230/1/2 228/1/2
f 25/1/1 27/1/1 164/1/1 162/1/1
f 93/1/2 91/1/2 210/1/2 212/1/2
f 28/4/1 26/4/1 163/4/1 165/4/1
f 92/4/2 94/4/2 213/4/2 211/4/2
f 27/1/1 29/1/1 166/1/1 164/1/1
f 95/1/2 93/1/2 212/1/2 214/1/2
f 54/1/1 59/1/72 181/1/72 179/1/1
f 30/4/1 28/4/1 165/4/1 167/4/1
f 94/4/2 96/4/2 215/4/2 213/4/2
f 58/1/1 53/1/1 180/1/1 182/1/1
f 97/1/2 95/1/2 214/1/2 216/1/2
f 127/1/17 122/1/2 229/1/2 231/1/17
f 32/4/1 30/4/1 167/4/1 168/4/1
f 96/4/2 98/4/2 217/4/2 215/4/2
f 121/1/2 126/1/2 232/1/2 230/1/2
f 34/4/1 32/4/1 168/4/1 169/4/1
f 98/4/2 100/4/2 218/4/2 217/4/2
f 59/1/72 64/1/73 183/1/73 181/1/72
f 133/1/74 132/1/74 234/1/74 233/1/74
f 63/1/11 58/1/1 182/1/1 184/1/12
f 66/1/75 67/1/76 185/1/76 186/1/75
f 36/4/1 34/4/1 169/4/1 170/4/1
f 100/4/2 102/4/2 219/4/2 218/4/2
f 68/1/14 66/1/75 186/1/75 187/1/15
f 37/1/1 38/4/1 171/4/1 172/1/1
