# Blender 4.1.1
# www.blender.org
mtllib Sign 2.mtl
o Sign
v -2.321876 -2.452726 0.718377
v -2.448214 -2.357917 0.719562
v -2.322374 -2.438998 0.737669
v -2.371950 -2.442766 0.718377
v -2.381431 -2.420706 0.739050
v -2.411938 -2.359474 0.745642
v -2.355319 -2.355270 0.757404
v -2.437225 -2.360139 0.734202
v -2.413642 -2.411150 0.727468
v -2.321876 2.452922 0.718377
v -2.452726 2.321876 0.718377
v -2.355695 2.414525 0.745427
v -2.351627 2.355930 0.757737
v -2.408839 2.369299 0.746237
v -2.371950 2.442766 0.718377
v -2.411151 2.413641 0.727467
v -2.360527 2.437684 0.733533
v -2.439587 2.357944 0.732894
v -2.442766 2.371950 0.718377
v -2.357917 -2.448214 -0.719562
v -2.452726 -2.321876 -0.718377
v -2.411150 -2.413642 -0.727468
v -2.360139 -2.437225 -0.734202
v -2.438998 -2.322374 -0.737669
v -2.442766 -2.371950 -0.718377
v -2.420706 -2.381431 -0.739050
v -2.362930 -2.359564 -0.755822
v -2.358125 -2.411148 -0.746212
v -2.321876 2.452726 -0.718377
v -2.448214 2.357917 -0.719562
v -2.322374 2.438998 -0.737669
v -2.371950 2.442766 -0.718377
v -2.381431 2.420706 -0.739050
v -2.411148 2.358125 -0.746212
v -2.358038 2.361274 -0.756218
v -2.437225 2.360139 -0.734202
v -2.413642 2.411150 -0.727468
v 2.357917 -2.448214 0.719562
v 2.452726 -2.321876 0.718377
v 2.411150 -2.413642 0.727468
v 2.360139 -2.437225 0.734202
v 2.438998 -2.322374 0.737669
v 2.442766 -2.371950 0.718377
v 2.420706 -2.381431 0.739050
v 2.356914 -2.354021 0.757261
v 2.358125 -2.411148 0.746212
v 2.321876 2.452796 0.718377
v 2.448214 2.357917 0.719562
v 2.356971 2.439499 0.733473
v 2.371365 2.406520 0.746479
v 2.371950 2.442766 0.718377
v 2.411144 2.358126 0.746213
v 2.353367 2.354059 0.757646
v 2.437225 2.360139 0.734202
v 2.413642 2.411150 0.727468
v 2.321876 -2.452726 -0.718377
v 2.448214 -2.357917 -0.719562
v 2.322374 -2.438998 -0.737669
v 2.371950 -2.442766 -0.718377
v 2.381431 -2.420706 -0.739050
v 2.411148 -2.358125 -0.746212
v 2.358038 -2.361274 -0.756218
v 2.437225 -2.360139 -0.734202
v 2.413642 -2.411150 -0.727468
v 2.357927 2.448187 -0.719599
v 2.452726 2.321876 -0.718377
v 2.411150 2.413642 -0.727468
v 2.360139 2.437225 -0.734202
v 2.438998 2.322374 -0.737669
v 2.442766 2.371950 -0.718377
v 2.420706 2.381431 -0.739050
v 2.362930 2.359564 -0.755822
v 2.358125 2.411148 -0.746212
v -1.553087 2.094302 0.565835
v -1.948109 1.612230 0.565835
v -1.685063 2.068805 0.565835
v -1.800391 1.997385 0.565835
v -1.887783 1.889321 0.565835
v -1.938683 1.756467 0.565835
v -1.663154 -1.639789 0.565835
v -1.191944 -2.087762 0.565835
v -1.630185 -1.776556 0.565835
v -1.558045 -1.901059 0.565835
v -1.453799 -2.000777 0.565835
v -1.327649 -2.065353 0.565835
v 1.150120 -2.087762 0.565835
v 1.623883 -1.639972 0.565835
v 1.285950 -2.065362 0.565835
v 1.412463 -2.000809 0.565835
v 1.517274 -1.901124 0.565835
v 1.590125 -1.776671 0.565835
v 1.928929 1.621207 0.565835
v 1.536460 2.100861 0.565835
v 1.920292 1.765231 0.565835
v 1.870103 1.897652 0.565835
v 1.783276 2.005147 0.565835
v 1.668311 2.075957 0.565835
v -1.995794 1.703632 0.751101
v -1.963226 1.642068 0.717942
v -1.949486 1.615161 0.676838
v -1.554960 2.094864 0.674808
v -1.772626 2.139028 0.758910
v -1.584548 2.103462 0.718321
v -1.651643 2.123222 0.751420
v -1.939593 1.759623 0.676528
v -2.029542 1.829182 0.758875
v -1.954401 1.779744 0.719122
v -1.988245 1.826292 0.751888
v -1.888878 1.890462 0.676215
v -1.899707 1.901306 0.707878
v -1.923556 1.925144 0.739564
v -1.803019 1.997461 0.676442
v -1.946407 1.989097 0.757356
v -1.821075 2.010959 0.719132
v -1.863542 2.040592 0.751852
v -1.687723 2.069610 0.677499
v -1.711160 2.079279 0.719344
v -1.764096 2.102234 0.752041
v -1.191717 -2.151025 0.751948
v -1.192649 -2.108289 0.719546
v -1.192773 -2.089532 0.677655
v -1.663577 -1.643433 0.675368
v -1.672407 -1.687731 0.719340
v -1.318533 -2.176636 0.758845
v -1.348211 -2.127739 0.752715
v -1.334605 -2.086459 0.721345
v -1.328911 -2.066583 0.677140
v -1.504107 -2.065866 0.757047
v -1.477881 -2.032613 0.738537
v -1.461800 -2.012028 0.707878
v -1.455086 -2.001720 0.676630
v -1.622988 -1.952128 0.757340
v -1.598525 -1.932891 0.745200
v -1.573134 -1.912925 0.717497
v -1.559774 -1.901199 0.675612
v -1.703129 -1.816007 0.757058
v -1.683287 -1.785910 0.745833
v -1.650782 -1.784803 0.721345
v -1.631958 -1.776327 0.677141
v 1.664804 -1.811906 0.757074
v 1.644295 -1.783681 0.745843
v 1.633744 -1.684537 0.719381
v 1.624634 -1.644638 0.677436
v 1.150339 -2.090447 0.686384
v 1.208343 -2.166231 0.757333
v 1.153193 -2.125279 0.736904
v 1.591241 -1.778070 0.677141
v 1.610679 -1.785020 0.721345
v 1.517808 -1.902777 0.675612
v 1.582023 -1.952425 0.757340
v 1.557633 -1.933100 0.745200
v 1.532318 -1.913043 0.717497
v 1.412298 -2.005146 0.689075
v 1.462644 -2.065984 0.757047
v 1.436481 -2.032688 0.738537
v 1.285662 -2.067103 0.677141
v 1.306463 -2.127758 0.752715
v 1.292890 -2.086471 0.721345
v 1.641437 2.130698 0.752317
v 1.571573 2.110199 0.719322
v 1.540067 2.101636 0.677279
v 1.929902 1.623109 0.674872
v 2.014477 1.837506 0.758879
v 1.944816 1.650461 0.718154
v 1.978820 1.711640 0.751144
v 1.671433 2.076354 0.676565
v 1.765712 2.143389 0.758888
v 1.695554 2.085984 0.719056
v 1.750953 2.108372 0.751940
v 1.785994 2.005180 0.676413
v 1.804824 2.018307 0.718997
v 1.849275 2.047245 0.751805
v 1.871966 1.898139 0.677012
v 1.882548 1.909458 0.707878
v 1.907613 1.932789 0.739591
v 1.932491 1.995818 0.757358
v 1.921529 1.766532 0.676257
v 1.936969 1.788010 0.719360
v 1.972453 1.833626 0.751960
vn -0.2686 -0.5005 0.8230
vn -0.4448 -0.4000 0.8014
vn -0.2478 -0.7473 0.6165
vn -0.0924 -0.1059 0.9901
vn -0.0660 -0.5579 0.8273
vn -0.6270 -0.1960 0.7539
vn -0.7828 -0.1608 0.6012
vn -0.3284 0.7929 0.5133
vn -0.2011 0.6529 0.7303
vn -0.0234 0.7528 0.6578
vn -0.3910 0.4154 0.8213
vn -0.6912 0.1772 0.7005
vn -0.7867 0.3491 0.5091
vn -0.7937 0.0231 0.6079
vn -0.3295 0.1791 0.9270
vn -0.3980 -0.4428 -0.8035
vn -0.1984 -0.6407 -0.7417
vn -0.1608 -0.8062 -0.5693
vn -0.5031 -0.2705 -0.8208
vn -0.7473 -0.2478 -0.6165
vn -0.1139 -0.0990 -0.9885
vn -0.5584 -0.0656 -0.8270
vn -0.2700 0.5024 -0.8214
vn -0.4428 0.3980 -0.8035
vn -0.2478 0.7473 -0.6165
vn -0.0976 0.1121 -0.9889
vn -0.0658 0.5582 -0.8271
vn -0.6407 0.1984 -0.7417
vn -0.8062 0.1608 -0.5693
vn 0.3980 -0.4428 0.8035
vn 0.1984 -0.6407 0.7417
vn 0.1608 -0.8062 0.5693
vn 0.5007 -0.2690 0.8228
vn 0.7473 -0.2478 0.6165
vn 0.1087 -0.0949 0.9895
vn 0.5590 -0.0661 0.8265
vn 0.1717 0.6839 0.7091
vn 0.3482 0.7833 0.5150
vn 0.0250 0.7594 0.6501
vn 0.4109 0.3950 0.8216
vn 0.1842 0.3265 0.9271
vn 0.6372 0.1994 0.7445
vn 0.8062 0.1608 0.5693
vn 0.2700 -0.5024 -0.8214
vn 0.4428 -0.3980 -0.8035
vn 0.2478 -0.7473 -0.6165
vn 0.0976 -0.1121 -0.9889
vn 0.0658 -0.5582 -0.8271
vn 0.6407 -0.1984 -0.7417
vn 0.8062 -0.1608 -0.5693
vn 0.3980 0.4427 -0.8035
vn 0.1983 0.6407 -0.7417
vn 0.1609 0.8062 -0.5694
vn 0.5031 0.2705 -0.8208
vn 0.7473 0.2478 -0.6165
vn 0.1139 0.0990 -0.9885
vn 0.5584 0.0656 -0.8270
vn -0.9503 -0.3113 0.0005
vn -0.9953 -0.0964 -0.0009
vn -0.9152 -0.4030 -0.0003
vn -0.9503 0.3113 -0.0005
vn -0.9953 0.0964 0.0009
vn -0.9152 0.4030 0.0003
vn -0.3211 0.1242 -0.9389
vn 0.9503 -0.3113 -0.0005
vn 0.9953 -0.0964 0.0009
vn 0.9152 -0.4030 0.0003
vn 0.9503 0.3113 0.0005
vn 0.9953 0.0964 -0.0009
vn 0.9152 0.4030 -0.0003
vn 0.3214 0.1244 0.9387
vn 0.0732 -0.0155 0.9972
vn 0.1014 -0.0777 0.9918
vn -0.0880 0.0938 0.9917
vn -0.0011 0.0025 1.0000
vn -0.1003 -0.0757 0.9921
vn -0.0707 -0.0146 0.9974
vn 0.0911 0.0902 0.9918
vn 0.0012 0.0025 1.0000
vn 0.3472 -0.1052 0.9319
vn 0.5044 0.0005 0.8635
vn 0.4545 -0.2521 0.8543
vn 0.7669 -0.1670 0.6197
vn 0.7032 -0.4009 0.5873
vn 0.4873 -0.5475 0.6803
vn 0.2569 -0.2959 0.9200
vn -0.1716 -0.3578 0.9179
vn -0.0963 -0.2080 0.9734
vn -0.0562 -0.5748 0.8163
vn -0.4478 -0.2461 0.8596
vn -0.2518 -0.2860 0.9246
vn -0.4847 -0.5439 0.6850
vn -0.6976 -0.3967 0.5967
vn -0.7589 -0.1622 0.6306
vn -0.3399 -0.1000 0.9351
vn -0.6218 0.5000 0.6027
vn -0.5420 0.7746 0.3260
vn -0.3472 0.4926 0.7980
vn -0.1173 0.1688 0.9787
vn -0.3084 0.8284 0.4675
vn -0.0733 0.3821 0.9212
vn -0.2385 0.7227 0.6487
vn -0.3019 0.9272 0.2214
vn -0.0492 0.6354 0.7706
vn -0.0830 0.9477 0.3081
vn 0.4986 0.1418 0.8552
vn 0.7227 0.3000 0.6226
vn 0.8473 0.1304 0.5149
vn 0.3916 0.3098 0.8664
vn 0.3335 0.4737 0.8151
vn 0.6261 0.4981 0.5999
vn 0.1123 0.1601 0.9807
vn 0.1335 0.3533 0.9259
vn 0.2456 0.7267 0.6415
vn 0.4928 0.6949 0.5238
vn 0.1742 0.0705 0.9822
vn -0.1744 0.0700 0.9822
vn -0.4910 0.0037 0.8712
vn 0.0623 0.7737 0.6304
vn 0.0233 0.4253 0.9048
vn 0.0974 0.9952 -0.0000
vn 0.3114 0.9503 -0.0014
vn -0.0987 0.9951 -0.0009
vn -0.0890 -0.7867 0.6108
vn -0.3142 -0.1306 0.9403
vn -0.1189 0.3181 0.9406
vn -0.1234 -0.3219 -0.9387
vn -0.7867 -0.0890 -0.6108
vn -0.0890 0.7867 -0.6108
vn 0.1258 -0.3190 0.9394
vn 0.7867 -0.0890 0.6108
vn 0.0890 -0.7867 -0.6108
vn 0.3211 -0.1242 -0.9389
vn 0.1234 0.3219 -0.9387
vn 0.7867 0.0890 -0.6108
vn -0.7048 -0.7094 -0.0000
vn -0.3113 -0.9503 -0.0005
vn -0.4030 -0.9152 0.0003
vn -0.7094 -0.7048 -0.0000
vn -0.0964 -0.9953 0.0009
vn -0.4202 0.9074 -0.0001
vn -0.4195 0.9077 -0.0001
vn -0.7197 0.6943 -0.0006
vn -0.7215 0.6924 -0.0006
vn 0.7048 -0.7094 -0.0000
vn 0.3113 -0.9503 0.0005
vn 0.4030 -0.9152 -0.0003
vn 0.7094 -0.7048 -0.0000
vn 0.0964 -0.9953 -0.0009
vn 0.7047 0.7095 -0.0000
vn 0.4035 0.9150 0.0003
vn 0.7094 0.7048 -0.0000
vn 0.0790 -0.9893 0.1224
vn 0.3375 -0.9199 0.1995
vn 0.3624 -0.9319 0.0131
vn 0.0947 -0.9955 0.0080
vn 0.9284 0.3714 0.0135
vn 0.9872 0.1591 0.0108
vn 0.9765 0.1421 0.1622
vn 0.9060 0.3609 0.2210
vn -0.3108 0.9502 0.0208
vn -0.0831 0.9964 0.0190
vn 0.8434 -0.4805 0.2404
vn 0.9578 -0.1979 0.2083
vn 0.9769 -0.2131 0.0139
vn 0.8664 -0.4991 0.0162
vn 0.9872 0.0230 0.1577
vn 0.9999 0.0116 0.0103
vn 0.6614 -0.7498 0.0165
vn 0.6406 -0.7275 0.2458
vn 0.0823 0.9965 0.0171
vn 0.3135 0.9495 0.0146
vn 0.3089 0.9252 0.2203
vn 0.0804 0.9719 0.2213
vn -0.0911 -0.9958 0.0084
vn -0.0749 -0.9894 0.1240
vn -0.3600 -0.9329 0.0134
vn -0.3356 -0.9205 0.1999
vn -0.6604 -0.7508 0.0168
vn -0.8676 -0.4969 0.0170
vn -0.8441 -0.4757 0.2474
vn -0.6391 -0.7277 0.2488
vn -0.9781 -0.2078 0.0136
vn -0.9586 -0.1899 0.2123
vn -0.9998 0.0179 0.0099
vn -0.9864 0.0291 0.1619
vn -0.9861 0.1657 0.0118
vn -0.9742 0.1492 0.1694
vn -0.7615 0.6138 0.2083
vn -0.7851 0.6192 0.0167
vn -0.5780 0.8158 0.0212
vn -0.9026 0.3690 0.2218
vn -0.9261 0.3769 0.0142
vn 0.5799 0.8146 0.0136
vn 0.5686 0.7956 0.2091
vn 0.7860 0.6181 0.0134
vn 0.7683 0.6046 0.2102
vn 0.8666 0.0151 0.4988
vn -0.1464 0.1150 0.9825
vn 0.0001 -0.0006 1.0000
vn 0.1464 0.1144 0.9826
vn 0.2795 -0.7495 0.6001
vn 0.1781 -0.3624 0.9148
vn 0.0934 -0.2127 0.9726
vn 0.0768 -0.9010 0.4270
vn 0.0579 -0.5785 0.8136
vn -0.0745 -0.8993 0.4309
vn -0.2781 -0.7474 0.6033
vn -0.8603 0.0204 0.5094
vn -0.7203 0.3040 0.6235
vn -0.8412 0.1338 0.5240
vn -0.4923 0.1431 0.8586
vn -0.3916 0.3113 0.8659
vn 0.0378 0.1576 0.9868
vt 0.128831 0.747579
vt 0.125000 0.744619
vt 0.129117 0.743331
vt 0.379940 0.995227
vt 0.376409 0.997906
vt 0.375000 0.993331
vt 0.375000 0.005381
vt 0.379757 0.004070
vt 0.379858 0.006669
vt 0.870883 0.743331
vt 0.870256 0.745930
vt 0.868331 0.743331
vt 0.875000 0.744619
vt 0.620109 0.004073
vt 0.620883 0.006669
vt 0.618331 0.006669
vt 0.625000 0.005381
vt 0.620712 0.000000
vt 0.125000 0.505381
vt 0.129757 0.504070
vt 0.129858 0.506669
vt 0.378831 0.247579
vt 0.375000 0.244619
vt 0.379117 0.243331
vt 0.379683 0.254694
vt 0.381669 0.246544
vt 0.871169 0.502421
vt 0.875000 0.505381
vt 0.870883 0.506669
vt 0.620286 0.254716
vt 0.623591 0.252094
vt 0.625000 0.256669
vt 0.625000 0.244619
vt 0.620243 0.245930
vt 0.620142 0.243331
vt 0.375000 0.744619
vt 0.370243 0.745930
vt 0.370142 0.743331
vt 0.378453 0.747579
vt 0.379117 0.743331
vt 0.379782 0.754900
vt 0.381669 0.746544
vt 0.629936 0.745926
vt 0.629117 0.743331
vt 0.631669 0.743331
vt 0.625000 0.744619
vt 0.625000 0.752664
vt 0.620243 0.745930
vt 0.620142 0.743331
vt 0.371736 0.502610
vt 0.375000 0.505381
vt 0.370883 0.506669
vt 0.379714 0.495284
vt 0.375000 0.493331
vt 0.379757 0.504070
vt 0.379858 0.506669
vt 0.625000 0.505381
vt 0.629757 0.504070
vt 0.629857 0.506669
vt 0.621547 0.502421
vt 0.620883 0.506669
vt 0.620317 0.495306
vt 0.618331 0.503456
vt 0.381669 0.243331
vt 0.620166 0.250000
vt 0.381669 0.743331
vt 0.618331 0.506669
vt 0.620166 0.750000
vt 0.592065 0.978544
vt 0.598931 0.978610
vt 0.620241 0.995078
vt 0.604585 0.979621
vt 0.606121 0.776480
vt 0.606617 0.772737
vt 0.620219 0.754863
vt 0.606634 0.785093
vt 0.591695 0.977175
vt 0.585942 0.976702
vt 0.595115 0.976413
vt 0.588385 0.974860
vt 0.593845 0.974917
vt 0.602725 0.966961
vt 0.600668 0.977962
vt 0.605372 0.785701
vt 0.605443 0.791300
vt 0.604378 0.778429
vt 0.605366 0.780654
vt 0.603314 0.783934
vt 0.594395 0.775876
vt 0.588954 0.776065
vt 0.594086 0.775515
vt 0.605370 0.774617
vt 0.403470 0.794863
vt 0.396048 0.803021
vt 0.395406 0.802112
vt 0.606344 0.962533
vt 0.393795 0.800273
vt 0.391599 0.808412
vt 0.389926 0.813506
vt 0.395027 0.809461
vt 0.395028 0.809462
vt 0.393476 0.816305
vt 0.394669 0.816385
vt 0.409286 0.961331
vt 0.409798 0.958797
vt 0.415088 0.959563
vt 0.401545 0.958310
vt 0.395410 0.949998
vt 0.403492 0.957218
vt 0.393806 0.951841
vt 0.391600 0.943715
vt 0.395027 0.942664
vt 0.396026 0.949080
vt 0.407635 0.962621
vt 0.407854 0.789391
vt 0.589575 0.772447
vt 0.586339 0.774164
vt 0.394669 0.935746
vt 0.391040 0.935995
vt 0.868331 0.506669
vt 0.131669 0.743331
vt 0.131669 0.746544
vt 0.379771 0.000000
vt 0.375000 0.002818
vt 0.379771 1.000000
vt 0.870022 0.750000
vt 0.875000 0.747181
vt 0.625000 0.995022
vt 0.621771 0.998941
vt 0.129834 0.500000
vt 0.125000 0.502818
vt 0.868331 0.503456
vt 0.375000 0.254834
vt 0.625000 0.247182
vt 0.370166 0.750000
vt 0.375000 0.754834
vt 0.368331 0.506669
vt 0.368331 0.503456
vt 0.379834 0.500000
vt 0.629834 0.500000
vt 0.625000 0.495166
vt 0.628039 0.749625
vt 0.603162 0.954323
vt 0.602993 0.960977
vt 0.602793 0.960879
vt 0.603166 0.954151
vt 0.409800 0.958795
vt 0.416658 0.959761
vt 0.416393 0.959731
vt 0.409799 0.958796
vt 0.395029 0.809463
vt 0.394670 0.816386
vt 0.593801 0.974794
vt 0.587958 0.974727
vt 0.587866 0.974517
vt 0.593819 0.973998
vt 0.581323 0.974298
vt 0.581132 0.974283
vt 0.601740 0.966761
vt 0.602516 0.966785
vt 0.394670 0.935746
vt 0.395029 0.942662
vt 0.395028 0.942663
vt 0.394670 0.935746
vt 0.603501 0.796696
vt 0.603499 0.796475
vt 0.603157 0.789978
vt 0.603357 0.789848
vt 0.602129 0.784124
vt 0.594217 0.776908
vt 0.594159 0.776123
vt 0.602924 0.784059
vt 0.588293 0.776421
vt 0.588356 0.776216
vt 0.581572 0.776695
vt 0.581727 0.776684
vt 0.416646 0.792241
vt 0.416370 0.792274
vt 0.403467 0.794881
vt 0.403466 0.794888
vt 0.396069 0.803016
vt 0.409787 0.793247
vt 0.409788 0.793247
vt 0.396070 0.949091
vt 0.396062 0.949089
vt 0.403487 0.957192
vt 0.403489 0.957200
vt 0.582141 0.974367
vt 0.400452 0.792918
vt 0.389539 0.942149
vt 0.400476 0.959165
vt 0.594015 0.975029
vt 0.603084 0.961651
vt 0.597995 0.975772
vt 0.602937 0.978167
vt 0.598142 0.975785
vt 0.600259 0.975972
vt 0.603153 0.955672
vt 0.603400 0.978240
vt 0.600739 0.976014
vt 0.601068 0.976043
vt 0.603498 0.795534
vt 0.603451 0.789338
vt 0.594208 0.775963
vt 0.594290 0.775701
vt 0.582932 0.776576
vt 0.603541 0.777592
vt 0.605402 0.774205
vt 0.603542 0.777167
vt 0.603543 0.776869
vt 0.409786 0.793246
vt 0.415198 0.792431
vt 0.409400 0.790692
vt 0.401523 0.793771
vt 0.605081 0.959202
s 1
f 5/1/1 9/2/2 4/3/3
f 7/4/4 5/5/1 3/6/5
f 9/7/2 8/8/6 2/9/7
f 15/10/8 17/11/9 10/12/10
f 16/13/11 17/11/9 15/10/8
f 18/14/12 19/15/13 11/16/14
f 18/14/12 16/17/11 19/15/13
f 14/18/15 16/17/11 18/14/12
f 22/19/16 23/20/17 20/21/18
f 26/22/19 22/23/16 25/24/20
f 27/25/21 26/22/19 24/26/22
f 33/27/23 37/28/24 32/29/25
f 35/30/26 33/31/23 31/32/27
f 37/33/24 36/34/28 30/35/29
f 40/36/30 41/37/31 38/38/32
f 44/39/33 40/36/30 43/40/34
f 45/41/35 44/39/33 42/42/36
f 49/43/37 51/44/38 47/45/39
f 49/43/37 55/46/40 51/44/38
f 50/47/41 55/46/40 49/43/37
f 55/46/40 54/48/42 48/49/43
f 60/50/44 64/51/45 59/52/46
f 62/53/47 60/50/44 58/54/48
f 64/51/45 63/55/49 57/56/50
f 67/57/51 68/58/52 65/59/53
f 71/60/54 67/57/51 70/61/55
f 72/62/56 71/60/54 69/63/57
f 2/9/58 21/64/59 25/24/60
f 30/35/61 11/16/62 19/15/63
f 24/26/22 36/34/28 34/65/64
f 57/56/65 39/66/66 43/40/67
f 48/49/68 66/67/69 70/61/70
f 42/42/36 54/48/42 52/68/71
f 106/69/72 113/70/73 13/71/74
f 113/70/73 102/72/75 13/71/74
f 176/73/76 163/74/77 53/75/78
f 167/76/79 176/73/76 53/75/78
f 108/77/80 106/69/72 98/78/81
f 111/79/82 108/77/80 107/80/83
f 113/70/73 106/69/72 108/77/80
f 110/81/84 114/82/85 111/79/82
f 111/79/82 115/83/86 113/70/73
f 169/84/87 167/76/88 159/85/89
f 175/86/90 172/87/91 171/88/92
f 174/89/93 178/90/94 175/91/90
f 175/86/90 179/92/95 176/73/76
f 152/93/96 153/94/97 155/95/98
f 13/71/74 102/96/75 167/76/79 53/75/78
f 154/97/99 157/98/100 145/99/101
f 155/95/98 158/100/102 157/98/100
f 153/94/97 156/101/103 158/100/102
f 145/99/101 157/98/100 146/102/104
f 146/102/104 158/100/102 144/103/105
f 137/104/106 138/105/107 123/106/108
f 133/107/109 129/108/110 134/109/111
f 128/110/112 125/111/113 129/108/110
f 129/108/110 126/112/114 130/113/115
f 106/69/72 136/114/116 98/78/81
f 140/115/117 163/116/77 165/117/118
f 120/118/119 146/102/104 144/103/105
f 119/119/120 145/99/101 146/102/104
f 39/66/66 57/56/65 66/67/69 48/49/68
f 47/45/121 65/59/122 29/120/123 10/12/123
f 21/64/59 2/9/58 11/16/62 30/35/61
f 62/53/47 27/25/21 35/30/26 72/62/56
f 4/3/3 1/121/124 3/122/5 5/1/1
f 6/123/125 8/8/6 9/7/2 5/124/1
f 7/4/4 6/125/125 5/5/1
f 12/126/126 17/11/9 16/13/11 14/127/15
f 13/71/74 12/128/126 14/129/15
f 28/130/127 23/20/17 22/19/16 26/131/19
f 25/24/20 21/64/128 24/26/22 26/22/19
f 32/29/25 29/120/129 31/132/27 33/27/23
f 27/25/21 28/133/127 26/22/19
f 34/65/64 36/34/28 37/33/24 33/134/23
f 35/30/26 34/65/64 33/31/23
f 46/135/130 41/37/31 40/36/30 44/39/33
f 43/40/34 39/66/131 42/42/36 44/39/33
f 52/68/71 54/48/42 55/46/40 50/47/41
f 45/41/35 46/136/130 44/39/33
f 53/75/78 52/68/71 50/47/41
f 59/52/46 56/137/132 58/138/48 60/50/44
f 61/139/133 63/55/49 64/51/45 60/50/44
f 62/53/47 61/139/133 60/50/44
f 73/140/134 68/58/52 67/57/51 71/60/54
f 70/61/55 66/67/135 69/63/57 71/60/54
f 22/19/136 20/21/137 4/3/138 9/2/139
f 72/62/56 73/141/134 71/60/54
f 1/121/140 4/3/138 20/21/137
f 25/24/60 22/23/136 9/7/139 2/9/58
f 14/129/15 6/125/125 7/4/4 13/71/74
f 8/8/6 6/123/125 14/18/15 18/14/12
f 2/9/7 8/8/6 18/14/12 11/16/14
f 15/10/141 10/12/123 29/120/123 32/29/142
f 16/13/143 15/10/141 32/29/142 37/28/144
f 19/15/63 16/17/143 37/33/144 30/35/61
f 34/65/64 35/30/26 27/25/21 24/26/22
f 30/35/29 36/34/28 24/26/22 21/64/128
f 58/138/48 56/137/132 20/21/18 23/20/17
f 62/53/47 58/54/48 28/133/127 27/25/21
f 23/20/17 28/130/127 58/138/48
f 31/132/27 29/120/129 65/59/53 68/58/52
f 35/30/26 31/32/27 73/141/134 72/62/56
f 68/58/52 73/140/134 31/132/27
f 69/63/57 66/67/135 57/56/50 63/55/49
f 72/62/56 69/63/57 61/139/133 62/53/47
f 63/55/49 61/139/133 69/63/57
f 40/36/145 38/38/146 59/52/147 64/51/148
f 56/137/149 59/52/147 38/38/146
f 43/40/67 40/36/145 64/51/148 57/56/65
f 67/57/150 65/59/122 51/44/151 55/46/152
f 65/59/122 47/45/121 51/44/151
f 70/61/70 67/57/150 55/46/152 48/49/68
f 52/68/71 53/75/78 45/41/35 42/42/36
f 48/49/43 54/48/42 42/42/36 39/66/131
f 3/122/5 1/121/124 38/38/32 41/37/31
f 7/4/4 3/6/5 46/136/130 45/41/35
f 41/37/31 46/135/130 3/122/5
f 49/43/37 47/45/39 10/12/10 17/11/9
f 12/126/126 50/142/41 49/43/37 17/11/9
f 13/71/74 53/75/78 50/47/41 12/128/126
f 1/121/140 20/21/137 56/137/149 38/38/146
f 101/143/153 116/144/154 76/145/155 74/146/156
f 82/147/157 80/148/158 122/149/159 139/150/160
f 144/103/105 156/101/103 88/151/161 86/152/162
f 109/153/163 105/154/164 79/155/165 78/156/166
f 105/154/164 100/157/167 75/158/168 79/155/165
f 77/159/169 112/160/170 109/153/163 78/156/166
f 76/145/155 116/144/154 112/160/170 77/159/169
f 81/161/171 85/162/172 127/163/173 121/164/174
f 93/165/175 161/166/176 101/143/153 74/146/156
f 93/165/175 97/167/177 166/168/178 161/166/176
f 96/169/179 95/170/180 173/171/181 170/172/182
f 95/170/180 94/173/183 177/174/184 173/171/181
f 97/167/177 96/169/179 170/172/182 166/168/178
f 75/158/168 100/157/167 122/149/159 80/148/158
f 94/173/183 92/175/185 162/176/186 177/174/184
f 87/177/187 143/178/188 162/176/186 92/175/185
f 153/94/97 149/179/189 90/180/190 89/181/191
f 156/101/103 153/94/97 89/181/191 88/151/161
f 149/179/189 147/182/192 91/183/193 90/180/190
f 85/162/172 84/184/194 131/185/195 127/163/173
f 147/182/192 143/178/188 87/177/187 91/183/193
f 83/186/196 82/147/157 139/150/160 135/187/197
f 84/184/194 83/186/196 135/187/197 131/185/195
f 81/161/171 121/164/174 144/103/105 86/152/162
f 99/188/198 100/157/167 105/154/164 107/80/83
f 136/114/116 106/69/72 13/71/74 7/4/4 45/41/35 53/75/78 163/116/77 140/115/117 150/189/199 154/97/99 145/99/200 124/190/200 128/110/112 132/191/201
f 98/78/81 99/188/198 107/80/83 108/77/80
f 107/80/83 105/154/164 109/153/163 110/192/84
f 114/82/85 110/81/84 109/153/163 112/160/170
f 110/192/84 111/79/82 107/80/83
f 111/79/82 113/70/73 108/77/80
f 117/193/202 114/82/85 112/160/170 116/144/154
f 111/79/82 114/194/85 115/83/86
f 118/195/203 115/83/86 114/196/85 117/197/202
f 102/72/204 113/70/73 115/83/86 118/195/203
f 103/198/205 117/193/202 116/144/154 101/143/153
f 104/199/206 118/195/203 117/200/202 103/201/205
f 160/202/207 161/166/176 166/168/178 168/203/208
f 118/195/203 104/199/206 102/72/204
f 159/85/89 160/202/207 168/203/208 169/84/87
f 168/203/208 166/168/178 170/172/182 171/88/92
f 169/84/87 168/203/208 171/88/92 172/87/91
f 167/76/88 169/84/87 172/87/91 176/73/76
f 171/88/92 170/172/182 173/171/181 174/204/93
f 178/90/94 174/89/93 173/171/181 177/174/184
f 174/204/93 175/205/90 171/88/92
f 175/86/90 176/73/76 172/87/91
f 164/206/209 178/90/94 177/174/184 162/176/186
f 175/86/90 178/207/94 179/92/95
f 176/73/76 179/92/95 163/74/77
f 165/208/118 179/92/95 178/209/94 164/210/209
f 147/182/192 148/211/210 142/212/211 143/178/188
f 179/92/95 165/208/118 163/74/77
f 141/213/212 142/212/211 148/211/210
f 141/213/212 151/214/213 150/189/199 140/115/117
f 148/211/210 152/93/96 151/214/213 141/213/212
f 147/182/192 149/179/189 152/93/96 148/211/210
f 155/95/98 154/97/99 150/189/199 151/214/213
f 139/150/160 122/149/159 123/106/108 138/105/107
f 151/214/213 152/93/96 155/95/98
f 152/93/96 149/179/189 153/94/97
f 154/97/99 155/95/98 157/98/100
f 155/95/98 153/94/97 158/100/102
f 146/102/104 157/98/100 158/100/102
f 144/103/105 158/100/102 156/101/103
f 137/104/106 136/114/116 132/191/201 133/107/109
f 138/105/107 137/104/106 133/107/109 134/109/111
f 139/150/160 138/105/107 134/109/111 135/187/197
f 129/108/110 133/107/109 132/191/201 128/110/112
f 131/185/195 135/187/197 134/109/111 130/113/115
f 134/109/111 129/108/110 130/113/115
f 127/163/173 131/185/195 130/113/115 126/112/114
f 128/110/112 124/190/214 125/111/113
f 129/108/110 125/111/113 126/112/114
f 126/112/114 125/111/113 119/119/120 120/118/119
f 124/190/214 119/119/120 125/111/113
f 127/163/173 126/112/114 120/118/119 121/164/174
f 123/106/108 99/188/198 98/78/81 137/104/106
f 98/78/81 136/114/116 137/104/106
f 122/149/159 100/157/167 99/188/198 123/106/108
f 103/198/205 101/143/153 161/166/176 160/202/207
f 104/215/206 103/198/205 160/202/207 159/85/89
f 102/96/204 104/215/206 159/85/89 167/76/88
f 164/206/209 162/176/186 143/178/188 142/212/211
f 165/117/118 164/206/209 142/212/211 141/213/212
f 141/213/212 140/115/117 165/117/118
f 121/164/174 120/118/119 144/103/105
f 120/118/119 119/119/120 146/102/104
f 119/119/120 124/190/214 145/99/101
