# Blender 4.1.1
# www.blender.org
mtllib Sign Background.mtl
o Sign_Background
v -1.553087 2.094302 0.565835
v -1.948109 1.612230 0.565835
v -1.685063 2.068805 0.565835
v -1.800391 1.997385 0.565835
v -1.887783 1.889321 0.565835
v -1.938683 1.756467 0.565835
v -1.663154 -1.639789 0.565835
v -1.191944 -2.087762 0.565835
v -1.630185 -1.776556 0.565835
v -1.558045 -1.901059 0.565835
v -1.453799 -2.000777 0.565835
v -1.327649 -2.065353 0.565835
v 1.150120 -2.087762 0.565835
v 1.623883 -1.639972 0.565835
v 1.285950 -2.065362 0.565835
v 1.412463 -2.000809 0.565835
v 1.517274 -1.901124 0.565835
v 1.590125 -1.776671 0.565835
v 1.928929 1.621207 0.565835
v 1.536460 2.100861 0.565835
v 1.920292 1.765231 0.565835
v 1.870103 1.897652 0.565835
v 1.783276 2.005147 0.565835
v 1.668311 2.075957 0.565835
vn -0.0000 -0.0000 1.0000
vt 0.603166 0.954151
vt 0.602793 0.960879
vt 0.601740 0.966761
vt 0.593819 0.973998
vt 0.587866 0.974517
vt 0.581132 0.974283
vt 0.416658 0.959761
vt 0.409800 0.958795
vt 0.403487 0.957192
vt 0.396070 0.949091
vt 0.395029 0.942662
vt 0.394670 0.935746
vt 0.394670 0.816386
vt 0.395029 0.809463
vt 0.396069 0.803016
vt 0.403466 0.794888
vt 0.409788 0.793247
vt 0.416646 0.792241
vt 0.581572 0.776695
vt 0.588293 0.776421
vt 0.594217 0.776908
vt 0.602129 0.784124
vt 0.603157 0.789978
vt 0.603501 0.796696
s 1
f 1/1/1 3/2/1 4/3/1 5/4/1 6/5/1 2/6/1 7/7/1 9/8/1 10/9/1 11/10/1 12/11/1 8/12/1 13/13/1 15/14/1 16/15/1 17/16/1 18/17/1 14/18/1 19/19/1 21/20/1 22/21/1 23/22/1 24/23/1 20/24/1
